<?xml version="1.0" encoding="utf-8"?>
<!-- Generator: Adobe Illustrator 24.0.3, SVG Export Plug-In . SVG Version: 6.00 Build 0)  -->
<svg version="1.1" id="Layer_1" xmlns="http://www.w3.org/2000/svg" xmlns:xlink="http://www.w3.org/1999/xlink" x="0px" y="0px"
	 viewBox="0 0 100 100" style="enable-background:new 0 0 100 100;" xml:space="preserve">
<style type="text/css">
	.st0{fill:#FFFFFF;}
	.st1{fill:#696969;}
</style>
<g>
	<circle class="st0" cx="50.02" cy="50.02" r="47.52"/>
	<g>
		<path class="st1" d="M50.02,5c24.82,0,45.02,20.19,45.02,45.02S74.84,95.03,50.02,95.03S5,74.84,5,50.02S25.19,5,50.02,5 M50.02,0
			C22.39,0,0,22.39,0,50.02s22.39,50.02,50.02,50.02s50.02-22.39,50.02-50.02S77.64,0,50.02,0L50.02,0z"/>
	</g>
</g>
<path class="st1" d="M44.49,84.75l29.32-0.42c0,0,4.46-12.01-1.55-11.84c-7.99,0.23-12.3,2.4-12.3,2.4s15.86-19.97-1.35-20.25
	c0,0-0.74-3.45,1.35-4.55c2.09-1.1,6.23-3.45,5.95-4.96c-0.28-1.52-2.34-4.27-3.17-3.79c-0.83,0.48-3.45,1.31-3.45,1.31
	s-2.48-6.47-1.52-7.85s4.68-1.38,4.68-1.38s4.82,3.03,6.06,3.03s-1.52-0.28,3.17-2.2c4.68-1.93,7.3-3.78,5.92-5.27
	c-1.38-1.48-5.1-6.72-5.37-7.68c-0.28-0.97-2.2-5.23-4.27-4.96c-2.07,0.28-5.92-3.58-8.54-3.03c-2.62,0.55-3.17,1.65-4.13,0.83
	c-0.97-0.83-3.03-2.48-3.72-2.34c-0.69,0.14-7.02-3.85-10.33,4.55c0,0,3.85,0.28,4,1.24c0.14,0.97-2.48,3.03-4,3.03
	c-1.52,0,0.97,6.33,7.99,6.2c0,0-10.75,18.6-10.33,32.23c0.42,13.63-3.03,13.08-4,11.57c-0.97-1.52-1.93-6.47,0-11.57
	c1.94-5.1,7.77-23.41-16.91-5.37c0,0,13.89-5.78,10.31,3.58s-4.68,19.56-1.93,23.55c2.75,4,11.43,6.88,16.67-1.52
	C43.04,79.31,41.12,84.75,44.49,84.75z"/>
</svg>
