<?xml version="1.0" encoding="utf-8"?>
<!-- Generator: Adobe Illustrator 24.0.3, SVG Export Plug-In . SVG Version: 6.00 Build 0)  -->
<svg version="1.1" id="Layer_1" xmlns="http://www.w3.org/2000/svg" xmlns:xlink="http://www.w3.org/1999/xlink" x="0px" y="0px"
	 viewBox="0 0 100 100" style="enable-background:new 0 0 100 100;" xml:space="preserve">
<style type="text/css">
	.st0{fill:#FFFFFF;}
	.st1{fill:#FF6347;}
</style>
<g>
	<circle class="st0" cx="50.02" cy="50.02" r="47.52"/>
	<g>
		<path class="st1" d="M50.02,5c24.82,0,45.02,20.19,45.02,45.02S74.84,95.03,50.02,95.03S5,74.84,5,50.02S25.19,5,50.02,5 M50.02,0
			C22.39,0,0,22.39,0,50.02s22.39,50.02,50.02,50.02s50.02-22.39,50.02-50.02S77.64,0,50.02,0L50.02,0z"/>
	</g>
</g>
<path class="st1" d="M28.49,82.64h21.96c0,0,1.15-4.62-2.32-4.62s-1.15-2.32-1.15-2.32s2.32-3.47,4.62-3.47c2.31,0,2.32,0,3.47,1.15
	c1.15,1.15,2.32,3.47,1.15,4.62c-1.15,1.15,0,4.62,0,4.62h19.66c0,0,0-6.94-8.09-6.94c0,0,0-8.09-2.32-11.56
	c-2.32-3.47-1.15-5.78-1.15-5.78s2.32-5.78,1.15-8.09c0,0,1.15,1.15,3.47,1.15c2.32,0,2.32,4.62,3.47,3.47
	c1.15-1.15,5.78-3.47,4.62-6.94c-1.15-3.47-4.62-5.78-8.09-5.78s-3.47-2.32-2.32-4.62c1.15-2.32,3.47-5.78,4.62-5.78
	c1.15,0,6.94-2.32,5.78-4.62c-1.15-2.32-5.78-10.41-20.81-11.56c0,0-4.62-9.25-10.41-4.62s4.62,11.56,5.78,11.56
	c0,0,1.15,6.94-3.47,12.72s-6.94,10.41-8.09,9.25c-1.15-1.15,6.94-17.34-5.78-20.81s-13.87,1.15-11.56,2.32
	c2.32,1.16,5.78,0,4.62,2.32c-1.16,2.32-12.72,18.5-5.78,30.06s13.87,10.41,13.87,11.56c0,1.15-4.62,5.78-5.78,6.94
	C28.47,78.02,27.34,78.02,28.49,82.64z"/>
</svg>
