<?xml version="1.0" encoding="utf-8"?>
<!-- Generator: Adobe Illustrator 24.0.3, SVG Export Plug-In . SVG Version: 6.00 Build 0)  -->
<svg version="1.1" id="Layer_1" xmlns="http://www.w3.org/2000/svg" xmlns:xlink="http://www.w3.org/1999/xlink" x="0px" y="0px"
	 viewBox="0 0 100 100" style="enable-background:new 0 0 100 100;" xml:space="preserve">
<style type="text/css">
	.st0{fill:#FFFFFF;}
	.st1{fill:#778899;}
</style>
<g>
	<circle class="st0" cx="50.02" cy="50.02" r="47.52"/>
	<path class="st1" d="M50.02,5c24.82,0,45.02,20.19,45.02,45.02S74.84,95.03,50.02,95.03S5,74.84,5,50.02S25.19,5,50.02,5 M50.02,0
		C22.39,0,0,22.39,0,50.02s22.39,50.02,50.02,50.02s50.02-22.39,50.02-50.02S77.64,0,50.02,0L50.02,0z"/>
</g>
<path class="st1" d="M27.79,86.78h19.42c0,0,0.57-3.91-0.8-5.4c-1.38-1.49-2.64-2.76-2.3-3.79s3.22-3.91,3.22-3.91
	s5.4,2.87,5.4,4.48s-1.95,5.29-1.61,8.62h23.9c0,0-0.69-6.32-3.56-7.47c-2.87-1.15-3.79-0.11-4.94-0.57s-2.53-2.76-2.53-2.76
	s3.33-5.17,2.3-8.39s-1.26-4.6-0.57-4.83c0.69-0.23,4.02-2.99,4.48-3.1c0.46-0.11,6.55-0.11,4.83-6.32s-4.71-6.21-5.17-5.86
	c-0.46,0.34-2.41,2.99-3.56,3.22c-1.15,0.23-2.18,0.88-2.18,0.88s-1.15-5.93,1.26-7.77s3.1-3.33,4.94-3.91
	c1.84-0.57,8.16,0.23,6.9-5.86c0,0,0.11-1.03-1.95-0.92c-2.07,0.11-5.98-0.8-5.98-0.8s-6.78-6.9-7.24-7.93s-0.46-5.75,2.3-6.21
	s4.25,0,4.25,0s0.23-4.37-5.06-4.83s-7.81,0.23-10.11-0.46s-5.98-4.94-9.77-4.48c0,0,1.49,2.64,1.38,3.79c0,0-11.95-1.72-16.55,2.99
	c0,0,4.37,0.69,5.17,1.38c0,0-9.42,5.63-11.26,11.72c0,0,3.1-0.11,4.48,0.11c0,0-8.16,6.21-10.23,14.94c0,0,2.18-1.26,4.02-1.49
	c0,0-5.06,9.42-2.76,15.97c0,0,1.72-2.64,3.68-3.1c0,0-0.92,14.71,2.64,18.73c0,0,1.38-3.56,4.71-6.78c0,0,2.3,2.18,2.53,4.94
	s0.8,4.37,0.11,5.29C30.89,77.81,27.56,80.23,27.79,86.78z"/>
</svg>
