<?xml version="1.0" encoding="utf-8"?>
<!-- Generator: Adobe Illustrator 24.0.3, SVG Export Plug-In . SVG Version: 6.00 Build 0)  -->
<svg version="1.1" id="Layer_1" xmlns="http://www.w3.org/2000/svg" xmlns:xlink="http://www.w3.org/1999/xlink" x="0px" y="0px"
	 viewBox="0 0 100 100" style="enable-background:new 0 0 100 100;" xml:space="preserve">
<style type="text/css">
	.st0{fill:#FFFFFF;}
	.st1{fill:#ADD8E6;}
</style>
<g>
	<circle class="st0" cx="50.02" cy="50.02" r="47.52"/>
	<g>
		<path class="st1" d="M50.02,5c24.82,0,45.02,20.19,45.02,45.02S74.84,95.03,50.02,95.03S5,74.84,5,50.02S25.19,5,50.02,5 M50.02,0
			C22.39,0,0,22.39,0,50.02s22.39,50.02,50.02,50.02s50.02-22.39,50.02-50.02S77.64,0,50.02,0L50.02,0z"/>
	</g>
</g>
<path class="st1" d="M47.42,84.09h11.56c0,0-5.27-6.38-4.81-7.58c0.46-1.2,0.56-2.59,2.03-1.57s6.56,9.15,6.56,9.15h11.47
	c0,0-0.92-5.64-2.22-6.11c-1.29-0.46-2.68,0.27-3.14,0c-0.46-0.27-1.48-3.88-1.67-5.36c-0.19-1.48,0.18-2.22,0.37-2.59
	c0.18-0.37,2.5-2.68,2.12-3.61c-0.37-0.92-1.67-3.97-0.74-4.53c0.92-0.56,9.15-4.17,8.14-11c-1.02-6.85-3.33-5.64-3.61-5.18
	c-0.27,0.46-4.81,5.92-6.01,5.82c-1.19-0.09-1.94-6.13-2.59-6.21c-0.65-0.08-0.74-0.63,0.18-0.82c0.92-0.18,4.53-2.03,5.18-2.68
	c0.65-0.65,5.82-1.67,5.46-3.24c-0.37-1.57-8.7-9.89-8.7-9.89s0.09-14.24-6.75-18.12c0,0-6.11,3.52-6.38,10.17
	c0,0-0.27,0.92-1.67,0.74C50.83,21.31,45.74,7.62,29.37,14c0,0-2.12,9.71,11.74,18.22c0,0,0,8.97,1.02,9.62
	c1.02,0.65,2.5,1.11,2.5,1.11s-8.88,9.43-9.99,14.06s2.96,10.55,3.42,11.09c0.46,0.56,3.14,8.79-4.81,8.88s-7.49-9.8-6.65-13.04
	c0.83-3.24-2.32,0-2.77,1.94c-0.46,1.94-2.5,17.76,11.47,18.22c0,0,8.05,1.76,9.53-2.86C46.29,76.63,47.42,84.09,47.42,84.09z"/>
</svg>
