<?xml version="1.0" encoding="utf-8"?>
<!-- Generator: Adobe Illustrator 24.0.3, SVG Export Plug-In . SVG Version: 6.00 Build 0)  -->
<svg version="1.1" id="Layer_1" xmlns="http://www.w3.org/2000/svg" xmlns:xlink="http://www.w3.org/1999/xlink" x="0px" y="0px"
	 viewBox="0 0 100 100" style="enable-background:new 0 0 100 100;" xml:space="preserve">
<style type="text/css">
	.st0{fill:#FFFFFF;}
	.st1{fill:#663399;}
	.st2{fill:none;}
</style>
<g>
	<circle class="st0" cx="50.02" cy="50.02" r="47.52"/>
	<g>
		<path class="st1" d="M50.02,5c24.82,0,45.02,20.19,45.02,45.02S74.84,95.03,50.02,95.03S5,74.84,5,50.02S25.19,5,50.02,5 M50.02,0
			C22.39,0,0,22.39,0,50.02s22.39,50.02,50.02,50.02s50.02-22.39,50.02-50.02S77.64,0,50.02,0L50.02,0z"/>
	</g>
</g>
<rect class="st2" width="100" height="100"/>
<path class="st1" d="M38.91,81.45h13.23c0,0,1.12-2.14,0-3.56c-1.12-1.42-2.54-2.44-1.94-3.16c0.62-0.72,3.06-1.02,3.76-0.4
	c0.72,0.62,0.72,1.22,1.22,2.44c0.51,1.22,1.94,4.68,1.94,4.68h14.05c0,0,0.82-1.32,0-2.64s-1.32-2.54-1.42-2.85
	c-0.1-0.3-3.06-3.56-5.19-4.28c-2.14-0.72-3.87-2.14-3.87-3.16s3.56-6.41,4.17-10.89c0.62-4.48,0.3-5.19,1.84-5.39
	c1.52-0.2,3.06-0.4,3.97,0.82c0.92,1.22,2.54,3.46,3.36,2.95c0.82-0.51,4.89-6.01,4.17-7.43c-0.72-1.42,0.47-1.73,0.08-2.44
	c-0.39-0.72-1.82-5.8-3.24-4.78s-5.09,1.83-7.53,1.12c-2.44-0.72-0.72-6.01,1.42-8.14c0,0,7.53,0.51,10.59-0.62
	c3.06-1.12,5.09-3.97,5.09-4.78s-1.73-3.56-5.09-3.76c-3.36-0.2-4.28-1.22-4.28-1.22s-4.28-8.65-12.63-7.02
	c-8.35,1.63-8.95,7.33-9.06,10.49s1.22,6.82-1.32,8.35c-2.54,1.52-12.11,7.13-13.33,15.78c-1.22,8.65-0.1,11.19-2.95,11.19
	s-18.73,0.2-21.78,4.68c-3.06,4.48,3.36,11.59,10.99,12.26c7.63,0.67,10.17,0.17,13.64-5.13c3.46-5.29,1.73-1.22,1.42-0.4
	C39.93,74.94,38.41,79.92,38.91,81.45z"/>
</svg>
