<?xml version="1.0" encoding="utf-8"?>
<!-- Generator: Adobe Illustrator 24.0.3, SVG Export Plug-In . SVG Version: 6.00 Build 0)  -->
<svg version="1.1" id="Layer_1" xmlns="http://www.w3.org/2000/svg" xmlns:xlink="http://www.w3.org/1999/xlink" x="0px" y="0px"
	 viewBox="0 0 100 100" style="enable-background:new 0 0 100 100;" xml:space="preserve">
<style type="text/css">
	.st0{fill:#FFFFFF;}
	.st1{fill:#556B2F;}
</style>
<g>
	<circle class="st0" cx="50.02" cy="50.02" r="47.52"/>
	<g>
		<path class="st1" d="M50.02,5c24.82,0,45.02,20.19,45.02,45.02S74.84,95.03,50.02,95.03S5,74.84,5,50.02S25.19,5,50.02,5 M50.02,0
			C22.39,0,0,22.39,0,50.02s22.39,50.02,50.02,50.02s50.02-22.39,50.02-50.02S77.64,0,50.02,0L50.02,0z"/>
	</g>
</g>
<path class="st1" d="M34.56,88.15h37.21c0,0,1.07-7.25-4.04-9.15s-7.37,1.66-11.17,1.55c-3.8-0.12-5.35-0.29-5.59-2.1
	s7.01-2.29,9.98-4.08c2.97-1.78,4.87-4.87,4.16-8.8c-0.71-3.92-2.14-5.71-0.59-7.61s7.25-0.71,9.98-0.59
	c2.73,0.12,6.42-0.12,6.42-4.16s-5.71-3.68-5.71-3.68s1.19-2.97-1.55-3.45c-2.73-0.48-3.45,2.89-4.16,2.93s-9.27,1.94-10.7-2.45
	c0,0-0.12-1.9,3.8-3.21c3.92-1.31,6.54-4.64,5.71-8.8s-0.48-4.87,1.19-5.35s7.37-3.8-1.19-8.2c0,0,3.21-9.51-3.33-10.82
	s-9.03,2.73-9.03,2.73s-12.72,0.48-15.21,1.55s-6.78,2.73-6.78,7.49s3.68,6.66,3.45,7.49c-0.24,0.83,0.48,1.43-1.9,2.26
	c-2.38,0.83-7.73,3.21-6.78,5.82c0.95,2.62,2.26,2.5,2.26,2.5s-9.75,6.18-9.87,20.8s6.89,21.16,14.15,21.63c0,0,1.43,0.83,0.59,1.31
	C35.03,84.23,31.23,86.37,34.56,88.15z"/>
</svg>
