<?xml version="1.0" encoding="utf-8"?>
<!-- Generator: Adobe Illustrator 24.0.3, SVG Export Plug-In . SVG Version: 6.00 Build 0)  -->
<svg version="1.1" id="Layer_1" xmlns="http://www.w3.org/2000/svg" xmlns:xlink="http://www.w3.org/1999/xlink" x="0px" y="0px"
	 viewBox="0 0 100 100" style="enable-background:new 0 0 100 100;" xml:space="preserve">
<style type="text/css">
	.st0{fill:#FFFFFF;}
</style>
<g>
	<ellipse class="st0" cx="50" cy="50" rx="47.52" ry="47.52"/>
	<g>
		<g>
			<path d="M50,4.98c24.82,0,45.02,20.19,45.02,45.02S74.82,95.02,50,95.02S4.98,74.82,4.98,50S25.18,4.98,50,4.98 M50-0.02
				C22.38-0.02-0.02,22.38-0.02,50s22.4,50.02,50.02,50.02s50.02-22.4,50.02-50.02S77.62-0.02,50-0.02L50-0.02z"/>
		</g>
	</g>
</g>
<g>
	<path d="M53.68,70.22l-1.09-0.68h-0.28c0,0.46-0.45,0.68-1.34,0.68v-0.45h-0.83c-2.17-0.6-3.35-0.9-3.54-0.9
		c-0.4,0-0.76,0.08-1.09,0.23c-2.09-0.84-3.35-1.75-3.79-2.73c-0.18-0.28-0.28-0.51-0.28-0.68c0.54-6.52,1.26-10.29,2.17-11.3
		c0-0.92,1.63-2.27,4.9-4.05l4.07-5.44l1.36-1.58c0-0.91,0.72-3.47,2.17-7.7l0.81-7.46c-1.18-1.49-3.08-2.24-5.71-2.24h-0.81
		c-1.18,0.28-2,0.43-2.45,0.43h-1.62c-0.3,0.21-0.94,1.5-1.92,3.86c-1.22,0-1.95,1.12-2.17,3.37c1.45,1.05,2.17,1.96,2.17,2.73
		c-0.17,0-0.53,0.45-1.09,1.36c0.19,0.28,0.28,0.5,0.28,0.66l-0.28,0.47l0.28,0.43l-0.28,0.47c0.19,0.26,0.28,0.55,0.28,0.9
		c0,0.16-0.09,0.23-0.28,0.23l0.28,0.45v1.36h-0.53v0.45c1.45,0.7,2.17,1.3,2.17,1.81v0.21c-0.08,0.31-0.54,0.62-1.36,0.92
		c-7.43-0.92-11.15-2.28-11.15-4.07c0-3.01-0.28-5.65-0.83-7.91c0.23-1.92,0.95-3.65,2.17-5.2c-0.35-3.69-0.8-6.79-1.34-9.27v-0.21
		c0.85-0.51,1.49-1.04,1.9-1.6l2.73-0.9c2.16,0.6,4.33,1.05,6.52,1.36l0.53-0.23c0.18,0,0.28,0.08,0.28,0.23
		c1.55-0.31,2.91-0.47,4.09-0.47c2.77,0.61,4.95,0.92,6.52,0.92l3.26-0.68c0,0.3,2,0.75,5.99,1.36c1.45,0.78,2.17,1.53,2.17,2.26
		l-0.28,0.45c0,0.14,0.09,0.21,0.28,0.21c-0.18,1.15-0.37,1.91-0.55,2.28c0.37,0.61,0.55,1.07,0.55,1.36h-0.28l0.28,0.43
		c0,0.07-0.18,0.3-0.55,0.68c0.94,1.39,1.57,2.22,1.9,2.49v0.45c0,0.16-0.08,0.23-0.26,0.23l0.26,0.43l-0.26,0.94l0.26,0.43
		l-0.81,4.09c0.37,0.75,0.55,1.28,0.55,1.58h-0.28c0.36,0.67,0.53,1.64,0.53,2.92v2.28c0,0.54-0.36,1.21-1.09,2.02v0.45h0.55v0.23
		H67c0,2.16-0.45,3.44-1.34,3.84c0,0.71-0.82,2.37-2.45,4.97c-0.98,0.65-1.71,1.49-2.17,2.49l-1.36-0.23
		c-1.26,1.05-2.17,1.58-2.73,1.58c-1.29,0.65-2.11,2.09-2.45,4.31c0.55,1.07,0.83,1.67,0.83,1.81l-0.28,0.45l0.28,2.71
		c0,0.75-0.36,1.58-1.09,2.49v0.21H53.68z M54.47,83.12c-0.5,0-1.04-0.18-1.64-0.53c0,0.36-0.18,0.53-0.53,0.53
		c-3.07-1.27-6.25-2.44-9.53-3.54l-0.28-1.9V75.5c0-0.37-0.27-0.55-0.81-0.55v-0.53c0.06-0.37,0.23-0.55,0.53-0.55l-0.26-0.53v-0.28
		c0.97,0,1.69-0.27,2.17-0.81h5.97c1.17,0,1.9,0.36,2.2,1.09c0.41,0,0.86,0.46,1.34,1.36c0.91,0.54,1.36,1.27,1.36,2.17l-0.28,1.62
		v0.28c0,0.67,0.36,1.58,1.09,2.73c-0.72,0.54-1.09,1.08-1.09,1.62H54.47z"/>
</g>
</svg>
