<?xml version="1.0" encoding="utf-8"?>
<!-- Generator: Adobe Illustrator 24.0.3, SVG Export Plug-In . SVG Version: 6.00 Build 0)  -->
<svg version="1.1" id="Layer_1" xmlns="http://www.w3.org/2000/svg" xmlns:xlink="http://www.w3.org/1999/xlink" x="0px" y="0px"
	 viewBox="0 0 100 100" style="enable-background:new 0 0 100 100;" xml:space="preserve">
<style type="text/css">
	.st0{fill:#FFFFFF;}
	.st1{fill:#ADFF2F;}
	.st2{fill:none;}
</style>
<g>
	<circle class="st0" cx="50.02" cy="50.02" r="47.52"/>
	<g>
		<path class="st1" d="M50.02,5c24.82,0,45.02,20.19,45.02,45.02S74.84,95.03,50.02,95.03S5,74.84,5,50.02S25.19,5,50.02,5 M50.02,0
			C22.39,0,0,22.39,0,50.02s22.39,50.02,50.02,50.02s50.02-22.39,50.02-50.02S77.64,0,50.02,0L50.02,0z"/>
	</g>
</g>
<rect class="st2" width="100" height="100"/>
<path class="st1" d="M48.56,79.05h12.89c0,0,1.51-0.76,0-2.59c-1.51-1.84-2.81-2.81-3.36-3.14c-0.55-0.33,0.86-2.06,3.57-1.73
	c2.71,0.33,5.3,2.02,5.52,3.71s0,3.75,0,3.75h12.23c0,0,2.71-0.79,2.59-3.75c-0.11-2.96-1.95-4.01-4-3.75
	c-2.06,0.26-3.47,0.86-5.73-0.04c-2.27-0.9-3.68-3.43-3.68-3.43s8.01-4.07,3.68-15.77c0,0,8.99-1.84,10.28-6.17
	c1.29-4.34-1.73-6.82-4.87-5.85c0,0-0.86-1.95-2.38-1.19c-1.51,0.76-3.03,2.59-2.92,3.9c0.11,1.3,0.22,3.47-3.79,4.33
	c0,0-5.95-4.25-5.85-8.41s4.77-7.07,5.41-7.51c0.64-0.44,7.47-3.36,7.36-5.63c0,0,3.47-0.65,3.14-2.59c-0.33-1.95-2.59-4-5.41-5.41
	c0,0,0.22-3.9-3.03-3.57c-3.25,0.33-2.92,2.06-2.92,2.06s-6.49-0.43-9.63,2.38s-5.3,4.44-5.85,8.01s0.55,4.98-0.43,6.71
	c-0.98,1.73-1.19,2.06-1.3,3.57c-0.11,1.51-0.76,6.49,1.41,10.72c2.16,4.22,0.11,14.62-5.2,19.7s-10.18,3.36-11.15,2.71
	s-12.99-5.85-19.05,8.99c0,0,7.26-5.41,11.04-3.68s11.04,5.52,18.07,2.38C45.21,77.75,46.51,76.34,48.56,79.05z"/>
</svg>
