<?xml version="1.0" encoding="utf-8"?>
<!-- Generator: Adobe Illustrator 24.0.3, SVG Export Plug-In . SVG Version: 6.00 Build 0)  -->
<svg version="1.1" id="Layer_1" xmlns="http://www.w3.org/2000/svg" xmlns:xlink="http://www.w3.org/1999/xlink" x="0px" y="0px"
	 viewBox="0 0 100 100" style="enable-background:new 0 0 100 100;" xml:space="preserve">
<style type="text/css">
	.st0{fill:#FFFFFF;}
	.st1{fill:#D2691E;}
</style>
<g>
	<circle class="st0" cx="50.02" cy="50.02" r="47.52"/>
	<g>
		<path class="st1" d="M50.02,5c24.82,0,45.02,20.19,45.02,45.02S74.84,95.03,50.02,95.03S5,74.84,5,50.02S25.19,5,50.02,5 M50.02,0
			C22.39,0,0,22.39,0,50.02s22.39,50.02,50.02,50.02s50.02-22.39,50.02-50.02S77.64,0,50.02,0L50.02,0z"/>
	</g>
</g>
<path class="st1" d="M30.36,86H48c0,0,3.28-0.85,1.79-3.28c-1.48-2.43-2.54-2.64-3.37-2.96c-0.85-0.32-1.48-0.95-1.48-0.95
	s-0.53-1.06,1.06-1.16c1.58-0.11,2.32,0,3.07,0.74c0.74,0.74,4.96,2.6,5.28,3.41c0.32,0.81,0.74,3.56,0.74,3.56h16.34
	c0,0,1.26-4.54-1.48-6.33c-2.74-1.79-4.43,0.95-8.02-2.96c-3.59-3.9-5.59-4.54-3.69-9.93c1.9-5.39,7.5-12.15,10.34-11.19
	s3.37,2.22,4.22,2.75c0.85,0.53,3.17,0.56,5.39-2.83c2.22-3.39-0.53-7.4-2.32-7.4c-1.79,0-9.4,0.85-10.34,0.85
	c-0.94,0-1.58-0.64-1.37-1.58c0.21-0.95,3.07-4.43,0.85-6.65c-2.22-2.22-3.48-1.37-3.37-2.01c0.11-0.64-0.53-2.96,3.28-3.37
	c3.8-0.42,5.8,1.16,8.34-0.74c2.54-1.9,2.96-4.33,1.16-4.43c-1.8-0.11-5.07,0-6.86-2.11c-1.79-2.11-4.33-3.17-4.43-4.54
	c-0.11-1.37-0.53-4.22-2.64-4.54c-2.11-0.32-3.48-0.85-3.28-2.64s0.11-3.69,0.85-4.33c0.74-0.64,3.07-3.07-0.74-1.79
	s-6.65,1.69-10.34,5.59c-3.69,3.9-6.44,8.87-7.18,9.72s-1.9,1.48-1.48,2.54c0.42,1.06,4.96,6.97,4.01,16.58
	c-0.95,9.61-4.01,15.63-4.65,14.67s0-8.87-1.9-11.94c-1.9-3.07-9.4-6.23-8.13-10.98s4.54,0.64,4.65-2.11s-1.79-6.76-6.97-4.86
	s-13.96,8.66-11.64,19.53s5.7,13.3,9.82,16.78c4.12,3.48,11.19,5.59,10.34,7.61c-0.85,2.01-5.59,9.4-5.18,10.77S29.2,86,30.36,86z"
	/>
</svg>
