<?xml version="1.0" encoding="utf-8"?>
<!-- Generator: Adobe Illustrator 24.0.3, SVG Export Plug-In . SVG Version: 6.00 Build 0)  -->
<svg version="1.1" id="Layer_1" xmlns="http://www.w3.org/2000/svg" xmlns:xlink="http://www.w3.org/1999/xlink" x="0px" y="0px"
	 viewBox="0 0 100 100" style="enable-background:new 0 0 100 100;" xml:space="preserve">
<style type="text/css">
	.st0{fill:#FFFFFF;}
	.st1{fill:#4682B4;}
	.st2{fill:none;}
</style>
<g>
	<circle class="st0" cx="50.02" cy="50.02" r="47.52"/>
	<g>
		<path class="st1" d="M50.02,5c24.82,0,45.02,20.19,45.02,45.02S74.84,95.03,50.02,95.03S5,74.84,5,50.02S25.19,5,50.02,5 M50.02,0
			C22.39,0,0,22.39,0,50.02s22.39,50.02,50.02,50.02s50.02-22.39,50.02-50.02S77.64,0,50.02,0L50.02,0z"/>
	</g>
</g>
<rect class="st2" width="100" height="100"/>
<path class="st1" d="M38.51,81.68h13.92c0,0-0.69-4.57-2.98-5.37c-2.29-0.79-3.67-2.29-3.09-3.18c0.6-0.9,2.88-2.58,2.88-2.58
	s3.28,2.98,5.27,3.88c1.99,0.9,1.69,1.2,1.59,1.69c-0.1,0.5-0.69,4.18,0.9,5.56h15.51c0,0-1.2-5.17-2.68-5.56
	c-1.49-0.4-3.97-1.59-5.56-2.49s-4.27-1.89-4.68-2.29c-0.4-0.4-0.4-0.4-0.4-0.4s1.79-5.07,1.69-5.77c-0.1-0.69,9.05-5.86,9.55-12.03
	s-1.59-9.85-2.58-11.73c-0.99-1.89-1.59-2.88-0.79-3.38c0.79-0.5,4.77-6.07,8.25-6.46c3.48-0.4,8.55-0.1,8.25-1.69
	c-0.3-1.59-2.08-4.87-4.87-5.17c-2.79-0.3-6.16-1.49-8.05-3.28c-1.89-1.79-8.75-3.97-11.23-1.29c-2.49,2.68-3.38,8.45-5.37,9.05
	c-1.99,0.6-10.43,2.79-14.12,15.01c-3.68,12.23-3.78,14.72-7.06,17.6c-3.28,2.88-14.82,13.02-14.62,15.1
	c0.2,2.08,1.29,2.08,1.29,2.08s0,1.29,0.99,1.79c0.99,0.5,4.68-0.2,6.16-1.59c0,0-0.79,1.79,1.29,1.79s4.87-0.1,9.14-4.47
	C37.13,76.51,39.11,80.59,38.51,81.68z"/>
</svg>
