<?xml version="1.0" encoding="utf-8"?>
<!-- Generator: Adobe Illustrator 24.0.3, SVG Export Plug-In . SVG Version: 6.00 Build 0)  -->
<svg version="1.1" id="Layer_1" xmlns="http://www.w3.org/2000/svg" xmlns:xlink="http://www.w3.org/1999/xlink" x="0px" y="0px"
	 viewBox="0 0 100 100" style="enable-background:new 0 0 100 100;" xml:space="preserve">
<style type="text/css">
	.st0{fill:#FFFFFF;}
	.st1{fill:#D2B48C;}
	.st2{fill:none;}
</style>
<g>
	<circle class="st0" cx="50.02" cy="50.02" r="47.52"/>
	<g>
		<path class="st1" d="M50.02,5c24.82,0,45.02,20.19,45.02,45.02S74.84,95.03,50.02,95.03S5,74.84,5,50.02S25.19,5,50.02,5 M50.02,0
			C22.39,0,0,22.39,0,50.02s22.39,50.02,50.02,50.02s50.02-22.39,50.02-50.02S77.64,0,50.02,0L50.02,0z"/>
	</g>
</g>
<rect class="st2" width="100" height="100"/>
<path class="st1" d="M22.1,82.23c0,0,3.36,1.89,9.07,1.65c5.72-0.24,9.43-2.89,9.43-2.89v2.54h11.9c0,0,1.47-2.35-0.29-3.36
	c-1.77-1-2.83-0.88-2.42-1.59c0.41-0.71,1.47-2.83,4.6-2.13c3.12,0.71,2.83,1.41,3.06,2.89c0.24,1.47,1.06,4.12,1.06,4.12h13.26
	c0,0,1.77-2.35-1.24-4.6c-3-2.24-5.42-4.72-6.37-7.19c-0.94-2.47-2.01-3.18-2.01-3.18s2.95-2.71,2.77-6.06
	c-0.17-3.36,0.41-3.59,1.12-3.65c0.71-0.05,3.18,0.12,3.88,1.06c0.71,0.94,1.26,1.77,2.35,1.65c1.07-0.12,1.55-1.18,2.08-1.65
	c0.53-0.47,2.95-4.42,0-7.25c-2.95-2.83-6.48-3.06-8.24-2.83c-1.77,0.24-1.59-6.06,4.3-10.42C76.28,34.97,81,28.9,80.35,26.9
	c-0.65-2.01-2.83-2.01-3.3-2.83c-0.47-0.82-0.88-2.42-1.94-4.42c-1.06-2.01-4.42-4.72-9.37-4.42c-4.95,0.29-6.25,3.77-7.83,3.59
	c-1.59-0.17-3.77-0.41-4.6-0.12c-0.82,0.29-0.71,3.12-0.29,3.83c0.41,0.71-0.94,7.19,0.29,11.43s-5.48,10.9-7.78,11.61
	c-2.3,0.71-9.25,3.47-9.37,11.61c-0.12,8.13,0.73,11.31-0.74,13.2s-6.37,7.6-10.84,9.07C20.1,80.92,21.51,81.46,22.1,82.23z"/>
</svg>
