<?xml version="1.0" encoding="utf-8"?>
<!-- Generator: Adobe Illustrator 24.0.3, SVG Export Plug-In . SVG Version: 6.00 Build 0)  -->
<svg version="1.1" id="Layer_1" xmlns="http://www.w3.org/2000/svg" xmlns:xlink="http://www.w3.org/1999/xlink" x="0px" y="0px"
	 viewBox="0 0 100 100" style="enable-background:new 0 0 100 100;" xml:space="preserve">
<style type="text/css">
	.st0{fill:#FFFFFF;}
	.st1{fill:#DA70D6;}
</style>
<g>
	<circle class="st0" cx="50.02" cy="50.02" r="47.52"/>
	<g>
		<path class="st1" d="M50.02,5c24.82,0,45.02,20.19,45.02,45.02S74.84,95.03,50.02,95.03S5,74.84,5,50.02S25.19,5,50.02,5 M50.02,0
			C22.39,0,0,22.39,0,50.02s22.39,50.02,50.02,50.02s50.02-22.39,50.02-50.02S77.64,0,50.02,0L50.02,0z"/>
	</g>
</g>
<path class="st1" d="M39.25,82.27c0,0-1.07,2.05,0,2.35c1.07,0.3,4.35,0,4.35,0s1.07-1.14,2.07-0.77s0.95,0.95,0.95,0.95h5.1
	c0,0,0.77-3.47,0-3.78c-0.77-0.3-3.52-1.91-1.91-2.75c1.61-0.84,4.35-0.69,5.81,1.61c1.45,2.3,0.91,3.9,1.07,4.13
	c0.16,0.23,0,0.8,0,0.8h5.96c0,0,0.46-1.64,1.53-1.18c1.07,0.46,1.45,1.18,1.45,1.18h5.12c0,0,2.37-2.1,0.69-4.01
	c-1.68-1.91-5.05-2.53-6.73-3.52c-1.68-1-3.28-2.68-3.37-3.37c-0.08-0.69-0.16-4.35,1.84-7.95c1.99-3.6,0.46-9.25,2.98-9.33
	c2.53-0.07,3.75,0.54,4.28,1.3c0.54,0.77,1.37,2.14,2.75,2.21c1.37,0.07,2.91-2.6,2.75-2.98c-0.16-0.38-0.46-2.98-0.46-2.98
	s2.07-3.95,1.37-5.03c-0.69-1.09-1.23-1.85-3.67-1.16c-2.44,0.69-5.74,0.85-6.5-0.27c-0.77-1.12-0.69-4.54-0.23-5
	c0.46-0.46,0.46-2.53,2.3-2.53c1.84,0,9.56,0.07,10.4-0.46c0.84-0.54,0-2.14,0-2.14l1.61,1c0,0,2.91-0.46,2.3-6.42
	s-4.21-6.96-6.42-7.65c-2.21-0.69-2.3-1.76-2.6-3.82c-0.3-2.07-0.84-4.74-1.76-5.35c-0.91-0.61-2.14,0.91-2.37,1.68
	c-0.23,0.77-1,1.23-1,1.23s-0.61-1.07-2.07-1.68c-1.45-0.61-2.37-0.07-2.44,0.54c-0.07,0.61-0.23,2.14-0.23,2.14
	s-2.14-0.54-2.75-0.61c-0.61-0.07-1.23,1-1.23,1s-1.53,0.84-2.68,0.16c-1.14-0.69-1.76-1.45-1.99-2.37s-1.37-2.75-2.68-1.14
	s-1.76,3.75-0.54,7.58c0,0-1.23-0.46-2.21-1.53c-1-1.07-3.67-1.61-3.98,0.91s-1.07,6.5,8.11,13.07c0,0,1.14,0.77-0.16,1.84
	c-1.3,1.07-10.55,6.62-13.3,13.13c-2.75,6.5-6.73,19.27-11.32,19.35c-4.59,0.07-10.56-2.21-12-0.84C16,71.16,16.77,80.42,24.34,82.4
	c7.57,1.99,11.24,1.51,13.07,0.69C39.24,82.27,39.25,82.27,39.25,82.27z"/>
</svg>
