<?xml version="1.0" encoding="utf-8"?>
<!-- Generator: Adobe Illustrator 24.0.3, SVG Export Plug-In . SVG Version: 6.00 Build 0)  -->
<svg version="1.1" id="Layer_1" xmlns="http://www.w3.org/2000/svg" xmlns:xlink="http://www.w3.org/1999/xlink" x="0px" y="0px"
	 viewBox="0 0 100 100" style="enable-background:new 0 0 100 100;" xml:space="preserve">
<style type="text/css">
	.st0{fill:#FFFFFF;}
	.st1{fill:#B22222;}
	.st2{fill:none;}
</style>
<g>
	<circle class="st0" cx="50.02" cy="50.02" r="47.52"/>
	<g>
		<path class="st1" d="M50.02,5c24.82,0,45.02,20.19,45.02,45.02S74.84,95.03,50.02,95.03S5,74.84,5,50.02S25.19,5,50.02,5 M50.02,0
			C22.39,0,0,22.39,0,50.02s22.39,50.02,50.02,50.02s50.02-22.39,50.02-50.02S77.64,0,50.02,0L50.02,0z"/>
	</g>
</g>
<rect class="st2" width="100" height="100"/>
<path class="st1" d="M15.21,76.86c0,0,15.2-12.63,19.41-15.74c0,0,0.18-5.49,5.86-9.33s24.35-16.84,23.99-22.89
	c-0.36-6.04-6.95-8.43-4.03-9.33c2.93-0.92,15.38,0.36,16.11,3.48c0.74,3.11,2.74,4.58,3.66,4.58s7.87,3.3,5.31,4.39
	c-2.56,1.1-6.23,1.83-7.51,2.38c-1.28,0.54,3.66,18.67-6.59,25.63s-12.08,8.61-11.35,9.52s1.28,3.84,2.2,3.66
	c0.92-0.18,7.69-2.2,9.52-0.18s1.64,4.76,1.64,4.76H52.74c0,0-1.28-2.56,0.54-2.93c1.83-0.36,2.74-3.3,0.36-4.58
	c-2.38-1.28-7.69-0.54-9.89-2.38c-2.2-1.83-3.3-0.74-3.3-0.74s-6.23,9.15-8.97,9.71c-2.74,0.54-4.76,0.92-4.94,0
	s0.54-2.38,0.54-2.38s-0.74,1.46-4.03,1.83C19.78,76.68,15.21,76.86,15.21,76.86z"/>
</svg>
