<?xml version="1.0" encoding="utf-8"?>
<!-- Generator: Adobe Illustrator 24.0.3, SVG Export Plug-In . SVG Version: 6.00 Build 0)  -->
<svg version="1.1" id="Layer_1" xmlns="http://www.w3.org/2000/svg" xmlns:xlink="http://www.w3.org/1999/xlink" x="0px" y="0px"
	 viewBox="0 0 100 100" style="enable-background:new 0 0 100 100;" xml:space="preserve">
<style type="text/css">
	.st0{fill:#FFFFFF;}
	.st1{fill:#2F4F4F;}
	.st2{fill:none;}
</style>
<g>
	<circle class="st0" cx="50.02" cy="50.02" r="47.52"/>
	<g>
		<path class="st1" d="M50.02,5c24.82,0,45.02,20.19,45.02,45.02S74.84,95.03,50.02,95.03S5,74.84,5,50.02S25.19,5,50.02,5 M50.02,0
			C22.39,0,0,22.39,0,50.02s22.39,50.02,50.02,50.02s50.02-22.39,50.02-50.02S77.64,0,50.02,0L50.02,0z"/>
	</g>
</g>
<rect class="st2" width="100" height="100"/>
<path class="st1" d="M39.38,81.08h11.69c0,0,3.83-2.09,2.13-4.7c-1.7-2.63-4.12-1.7-2.13-2.93c1.98-1.23,5.22,1.39,5.92,3.16
	c0.7,1.77,0.92,4.48,0.92,4.48h12.51c0,0,3.4-1.16,1.62-4.48c-1.77-3.32-5.17-3.86-7.1-4.32c-1.93-0.46-3.63-0.77-2.7-2.47
	c0.93-1.7,5.25-3.24,5.09-10.58c-0.16-7.33-1.77-8.1,0.23-8.18c2-0.07,8.26,1,11.12,0c2.86-1,1.39-1.47,0.85-1.77
	c-0.54-0.31,2.7-0.77,1.62-1.77c-1.08-1-1.31-1.39-1.31-1.39s2.76-0.46,1.53-1.47c-1.22-1-3.46-3.09-6.48-2.24
	c-3.01,0.85-6.56-0.07-7.41-1.08c-0.85-1.01-1.86-5.02-0.77-6.02c1.08-1,13.2-4.56,15.98-8.8s-2.24-2.86-2.93-2.86
	c-0.7,0-2.7,0.07-4.02-1c-1.31-1.08-5.72-7.65-10.19-7.72c-4.48-0.07-5.86,1.54-6.72,1.77c-0.85,0.23-6.63,2.24-6.72,4.02
	c-0.08,1.77,1.16,2.24,1.16,2.24s-1.31,1.86,0.16,5.86S51.05,35,51.05,35s-11.37,6.02-13.6,18.07s-1.86,15.82-6.4,19.3
	c-4.56,3.47-11.35,0.7-13.35-2.63c-2-3.32-2.63-3.55-3.01-1.08c-0.4,2.47,0.76,12.66,11.34,12.43S40,73.59,40,73.59
	S37.07,80.62,39.38,81.08z"/>
</svg>
