<?xml version="1.0" encoding="utf-8"?>
<!-- Generator: Adobe Illustrator 24.0.3, SVG Export Plug-In . SVG Version: 6.00 Build 0)  -->
<svg version="1.1" id="Layer_1" xmlns="http://www.w3.org/2000/svg" xmlns:xlink="http://www.w3.org/1999/xlink" x="0px" y="0px"
	 viewBox="0 0 100 100" style="enable-background:new 0 0 100 100;" xml:space="preserve">
<style type="text/css">
	.st0{fill:#FFFFFF;}
	.st1{fill:#9370DB;}
	.st2{fill:none;}
</style>
<g>
	<circle class="st0" cx="50.02" cy="50.02" r="47.52"/>
	<g>
		<path class="st1" d="M50.02,5c24.82,0,45.02,20.19,45.02,45.02S74.84,95.03,50.02,95.03S5,74.84,5,50.02S25.19,5,50.02,5 M50.02,0
			C22.39,0,0,22.39,0,50.02s22.39,50.02,50.02,50.02s50.02-22.39,50.02-50.02S77.64,0,50.02,0L50.02,0z"/>
	</g>
</g>
<rect class="st2" width="100" height="100"/>
<path class="st1" d="M36.51,78.06H68.3c0,0,2.26-5.74-2.54-7.11c-4.8-1.37-7.35,1.17-9.75-1.09c-2.41-2.26-3.25-3.11-2.41-3.39
	c0.84-0.28,5.37-0.28,10.46-8.76s6.22-12.72,5.37-13.99c-0.84-1.27-3.53-3.81-2.12-5.37c1.41-1.56,1.64-0.28,2.38-1.55
	c0.74-1.27,0.12-9.75,0-11.59s5.25-5.37,4.27-7.77c-0.99-2.41-6.78,1.88-6.78,1.88s-12.58-1.37-17.53,0c0,0-1.98-1.73-3.39-1.73
	c-1.42,0-5.37,0-5.51,0.71c-0.14,0.71,2.26,3.53,4.38,4.8c0,0-1.83,5.51-0.28,11.59c0,0-12.43,7.49-12.02,8.9
	c0.42,1.42,0.43,1.41,0.43,1.41l1.55-0.56c0,0-9.89,7.21-9.75,9.18c0.15,1.98-0.84,11.44-2.69,13.99c-1.83,2.54-4.66,4.24-4.66,5.79
	c0,1.55-2.12,5.79,1.98,3.25l2.41-1.7c0,0-0.71,3.53,0.71,3.11c1.42-0.43,2.82-2.26,5.65-4.8c2.82-2.54,9.61-8.56,13.7-2.31
	C42.16,70.95,35.37,73.11,36.51,78.06z"/>
</svg>
