<?xml version="1.0" encoding="utf-8"?>
<!-- Generator: Adobe Illustrator 24.0.3, SVG Export Plug-In . SVG Version: 6.00 Build 0)  -->
<svg version="1.1" id="Layer_1" xmlns="http://www.w3.org/2000/svg" xmlns:xlink="http://www.w3.org/1999/xlink" x="0px" y="0px"
	 viewBox="0 0 300 250.37" style="enable-background:new 0 0 300 250.37;" xml:space="preserve">
<g id="qIv4hC.tif">
	<g>
		<path d="M234.13,153.83c-1.04,3.38-2.63,6.42-5.49,8.65c-2.57,2.01-5.41,3.15-8.73,3.13c-6.1-0.04-12.21-0.18-18.31,0.04
			c-5.06,0.18-9.33-1.2-12.81-5.05c-2.32,2.42-4.93,4.6-8.23,4.73c-7.28,0.28-14.59,0.3-21.87,0.03c-3.29-0.12-5.93-2.26-8.28-4.74
			c-2.29,2.35-4.82,4.54-8.05,4.67c-7.39,0.28-14.8,0.31-22.19,0.04c-3.23-0.12-5.82-2.27-8.12-4.69c-2.29,2.35-4.85,4.15-8.06,4.71
			c-1.22,0.21-2.49,0.25-3.73,0.26c-6.32,0.02-12.64,0-18.96,0.01c-5.96,0.01-11.32-3.45-13.58-9c-2.32-5.66-0.75-10.53,3.33-14.79
			c0.18-0.19,0.36-0.39,0.61-0.67c-2.2-2.08-3.88-4.46-4.61-7.4c-2.01-8.14,4.71-16.77,13.41-16.98c7.08-0.17,14.17-0.19,21.25,0.01
			c6.18,0.17,10.44,3.59,12.81,9.11c2.32,5.41,0.74,10.21-3.12,14.4c-0.22,0.24-0.45,0.47-0.67,0.71c-0.04,0.04-0.05,0.09-0.13,0.22
			c0.19,0.2,0.41,0.42,0.62,0.65c0.22,0.24,0.43,0.49,0.63,0.73c1.35-1.04,2.57-2.11,3.92-2.98c2.15-1.4,4.56-1.99,7.13-1.98
			c4.9,0.02,9.81,0.15,14.71-0.03c4.98-0.18,9.24,1.16,12.56,4.87c0.21-0.03,0.35,0,0.41-0.06c3.47-3.62,7.7-5.02,12.68-4.81
			c4.84,0.2,9.7,0.07,14.55,0.04c3.79-0.03,7,1.35,9.77,3.86c0.4,0.36,0.79,0.74,1.19,1.12c0.52-0.49,0.99-0.93,1.41-1.32
			c-1.01-1.29-2.06-2.42-2.86-3.7c-5.48-8.85,1.05-20.55,11.73-20.84c7.13-0.2,14.28-0.13,21.41-0.01
			c6.05,0.11,11.58,4.74,13.27,10.81c0.1,0.36,0.25,0.71,0.37,1.06c0,1.42,0,2.83,0,4.25c-0.98,3.16-2.42,6.05-5.04,8.29
			c2.69,2.37,4.13,5.22,5.04,8.39C234.13,151,234.13,152.41,234.13,153.83z M209.43,158.58c0,0.01,0,0.01,0,0.02
			c1.91,0,3.81,0.01,5.72,0c1.9-0.01,3.82,0.06,5.71-0.08c4.03-0.3,6.29-2.84,6.25-6.89c-0.04-4.15-2.4-6.85-6.43-6.92
			c-7.29-0.12-14.59-0.09-21.89-0.01c-3.28,0.04-5.53,1.89-6.22,4.77c-1.28,5.29,1.48,8.97,6.9,9.09
			C202.79,158.64,206.11,158.58,209.43,158.58z M91.07,158.58c3.38,0,6.75,0.03,10.13-0.02c0.97-0.01,1.97-0.09,2.9-0.36
			c3.11-0.92,4.82-3.89,4.4-7.46c-0.44-3.7-2.72-5.97-6.49-6.02c-7.24-0.11-14.48-0.09-21.72-0.02c-3.28,0.03-5.72,1.83-6.29,4.69
			c-1.02,5.11,0.99,9.23,6.96,9.2C84.32,158.57,87.7,158.59,91.07,158.58z M90.99,137.55C90.99,137.55,90.99,137.54,90.99,137.55
			c1.74-0.01,3.48-0.01,5.23-0.01c1.8,0,3.59,0.03,5.39-0.01c0.86-0.02,1.76-0.05,2.57-0.29c3.02-0.91,4.73-3.87,4.34-7.35
			c-0.42-3.72-2.63-6.02-6.43-6.1c-7.34-0.14-14.7-0.16-22.04,0.01c-4.27,0.1-6.41,2.95-6.24,7.64c0.14,3.84,2.6,6.09,6.74,6.1
			C84.02,137.56,87.51,137.55,90.99,137.55z M209.63,137.55c1.69,0,3.38,0,5.06,0c1.69,0,3.38,0.03,5.06-0.01
			c0.97-0.02,1.99,0.01,2.91-0.25c3.24-0.91,4.76-3.72,4.35-7.76c-0.34-3.36-2.58-5.64-6.21-5.71c-7.4-0.15-14.81-0.17-22.21-0.01
			c-4.06,0.09-6.48,3.08-6.32,7.19c0.16,4.18,2.64,6.54,6.91,6.55C202.66,137.56,206.14,137.55,209.63,137.55z M169.63,144.68
			c-3,0-5.99-0.06-8.98,0.02c-2.54,0.06-4.77,0.92-5.91,3.36c-1.21,2.61-1.17,5.3,0.36,7.8c0.93,1.52,2.41,2.51,4.17,2.54
			c6.8,0.1,13.61,0.18,20.4,0c3.25-0.09,5.32-2.58,5.46-5.82c0.2-4.47-1.31-7.15-4.92-7.56
			C176.72,144.63,169.63,144.77,169.63,144.68z M131.43,158.47c0-0.01,0-0.02,0-0.03c3.32,0,6.65,0.13,9.96-0.04
			c2.57-0.14,4.41-1.65,5.08-4.15c1.32-4.89-0.6-9.61-6.96-9.59c-5.5,0.02-11,0-16.5,0.01c-0.76,0-1.52,0.09-2.26,0.24
			c-3.74,0.75-5.29,3.16-5.06,7.84c0.15,3.11,2.33,5.49,5.63,5.68C124.68,158.62,128.06,158.47,131.43,158.47z"/>
		<path d="M146.85,53.95c0-0.84,0-1.48,0-2.12c-0.01-12.91-0.02-25.83-0.03-38.74c0-3.28,1.15-4.45,4.36-4.45
			c11.23,0,22.45,0,33.68,0c2.88,0,4.51,1.92,3.76,4.71c-1.83,6.87-3.76,13.72-5.69,20.57c-0.53,1.88-1.73,2.63-3.99,2.64
			c-7.41,0.02-14.82,0.01-22.23,0.01c-0.86,0-1.72,0-2.66,0c0,5.83,0,11.48,0,17.39c0.67,0,1.3,0,1.93,0
			c10.68,0,21.36,0.13,32.04-0.03c15.27-0.23,28.59,10.98,31.48,25.32c0.76,3.8,0.61,7.79,0.69,11.7c0.11,4.96,0.05,9.92,0.01,14.87
			c-0.01,2.06-0.89,3.36-2.43,3.82c-2.42,0.73-4.55-0.92-4.56-3.6c-0.02-6.87-0.01-13.73-0.01-20.6c0-12.1-7.63-21.53-19.48-23.97
			c-1.69-0.35-3.46-0.51-5.19-0.51c-25.5-0.03-51-0.04-76.51-0.01c-13.94,0.01-24.37,10.47-24.42,24.41c-0.02,6.81,0,13.62,0,20.43
			c0,2.38-1.3,3.93-3.35,4c-2.14,0.07-3.64-1.48-3.64-3.9c0-7.36-0.35-14.74,0.14-22.06c0.9-13.4,8.16-22.48,20.32-27.78
			c3.58-1.57,7.4-2.12,11.31-2.12c10.73,0.01,21.47,0,32.2,0C145.29,53.95,145.98,53.95,146.85,53.95z M154.1,15.73
			c0,4.64,0,9.18,0,13.78c7.61,0,15.11,0,22.76,0c1.25-4.55,2.5-9.12,3.77-13.78C171.61,15.73,162.87,15.73,154.1,15.73z"/>
		<path d="M150.58,88.79c14.82,0,29.64,0,44.46,0c2.58,0,4.18,1.35,4.22,3.52c0.04,2.15-1.61,3.58-4.15,3.58c-29.8,0-59.6,0-89.41,0
			c-2.51,0-4.19-1.47-4.15-3.6c0.04-2.15,1.67-3.51,4.24-3.52c14.93,0,29.86,0,44.79,0C150.58,88.79,150.58,88.79,150.58,88.79z"/>
	</g>
</g>
<g>
	<path d="M10.3,220.67l-0.21-1.02c1.1-1.85,1.79-3.44,2.07-4.75c0.13,0,0.19-0.06,0.19-0.19v-4.96c0.42-1.34,0.63-2.84,0.63-4.52
		v-1.03c0-0.71-0.21-1.12-0.63-1.23c0-0.11,0.27-1.21,0.82-3.31L12.35,198v-1.02c0.23-1.63,0.5-4.51,0.82-8.66
		c0.2,0,0.41-0.2,0.63-0.61c-0.69-0.31-1.17-0.86-1.45-1.65l0.21-1.03l-0.21-1.03h0.21l-0.21-0.4c0-3.19-0.48-6.42-1.44-9.69v-0.61
		h1.86c0.13,0,0.68,0.13,1.65,0.4h2.26l1.24,1.24h0.21c0-0.36,0.34-0.56,1.02-0.61c0-0.34,0.27-0.55,0.82-0.63
		c3.62-0.13,5.75-0.19,6.4-0.19v0.19c0.5-0.27,1.04-0.4,1.65-0.4h1.03c2.49,0.47,3.86,0.95,4.12,1.44h1.02
		c0,0.15,0.07,0.36,0.21,0.61c-0.14,0.55-0.21,1.03-0.21,1.45c0,0.29,0.55,0.63,1.65,1.02c0,0.08,0.14,0.29,0.42,0.63v0.21
		l-0.42,1.44c0,0.33,0.14,1.09,0.42,2.26c-0.28,0.45-0.42,0.87-0.42,1.24v0.19l0.42,0.63v1.23l-0.21,1.24l0.21,0.4
		c-0.28,0.55-0.42,1.03-0.42,1.44c0.14,0.27,0.21,0.48,0.21,0.63c-1.17,1.37-1.93,2.33-2.26,2.88c1.65,1.9,2.47,2.99,2.47,3.3
		l0.21,0.82l-0.42,4.12c0.14,0.24,0.21,0.58,0.21,1.03c0,0.14-0.07,0.21-0.21,0.21c0,0.31,0.2,1.41,0.61,3.3
		c0,0.24-0.27,0.99-0.82,2.26h0.42v2.07c0,0.14-0.07,0.21-0.21,0.21l0.82,4.94c0,0.38-0.41,1.13-1.23,2.26
		c0,1.21-0.89,2.31-2.68,3.3c-0.14,0-0.21-0.07-0.21-0.21l-0.4,0.21h-1.24l-1.44,0.21c-0.55-0.96-1.1-1.44-1.65-1.44v1.02
		c0,0.21-0.21,0.41-0.63,0.63c-0.44-0.28-0.78-0.42-1.02-0.42c-0.31,0-0.59,0.07-0.82,0.21c-0.74-0.14-1.36-0.21-1.86-0.21
		c-0.15,0-0.36,0.07-0.61,0.21c-1.34-0.28-3.19-0.42-5.57-0.42h-0.4l-0.82-0.82c-0.09,0-0.5,0.41-1.24,1.24h-0.4
		c-1.36-0.28-2.12-0.42-2.28-0.42h-0.19c0,0.08-0.07,0.35-0.21,0.82H10.3z M24.73,211.2c0.98,0.13,1.53,0.19,1.65,0.19l0.4-0.19
		c0.27,0.13,0.47,0.19,0.61,0.19l0.21-0.4c0-2.71,0.21-4.64,0.63-5.77c-0.08-0.55-0.29-0.82-0.63-0.82c0.42-0.38,0.69-1.2,0.82-2.47
		c-0.22,0-0.49-0.27-0.82-0.82v-1.65l0.21-1.24c-0.14-0.2-0.21-0.61-0.21-1.23c-1.25,0.55-2.14,0.82-2.68,0.82
		c0-0.14-0.27-0.35-0.82-0.63l-1.44,0.42c-0.27-0.14-0.47-0.21-0.61-0.21c-0.74,0.23-1.29,0.5-1.65,0.82c0,1.29-0.07,2.6-0.21,3.93
		c0.14,1.49,0.21,3.13,0.21,4.94c-0.55,0.27-0.82,0.68-0.82,1.23c0.3,0,0.65,0.75,1.03,2.26c0.24,0.34,0.92,0.69,2.05,1.03
		c0.04,0.28,0.18,0.42,0.42,0.42C23.65,211.47,24.2,211.2,24.73,211.2z M27.2,183.59c-0.28-0.33-0.42-0.61-0.42-0.82h-1.03
		c-0.72,0-1.88,0.06-3.49,0.19v-0.19c-1.38,0.3-2.07,0.58-2.07,0.82c0.55,0.62,0.82,1.58,0.82,2.88v2.47c0.06,0,0.34,0.07,0.82,0.21
		l2.07-0.21c0.04,0.28,0.18,0.42,0.4,0.42h2.26C26.99,189.36,27.2,187.43,27.2,183.59z"/>
	<path d="M51.26,218.82l-0.61,0.4h-0.21c-0.13,0-0.19-0.07-0.19-0.21c-0.83,0.23-1.24,0.44-1.24,0.63l-2.47-0.42
		c-0.53,0.14-1.08,0.21-1.65,0.21c-0.99-0.41-1.68-1.03-2.07-1.86c0-0.4-0.75-1.5-2.26-3.3l-0.21-1.03v-2.26
		c0-0.57-0.06-1.33-0.19-2.26c0.13-0.23,0.19-0.57,0.19-1.03l-0.19-1.03c0.13-0.72,0.19-1.41,0.19-2.05l-0.4-0.82
		c0-0.14,0.07-0.21,0.21-0.21c-0.28-1.03-0.42-2-0.42-2.89v-3.91l-0.21-1.03c0.69-0.4,1.03-0.81,1.03-1.23
		c-0.41-0.97-0.68-1.45-0.82-1.45l0.42-4.94c-0.14-1.2-0.21-2.22-0.21-3.09c0-0.26,0.2-1.15,0.61-2.68c-0.52,0-0.93-1.3-1.23-3.91
		h0.19l-0.19-0.42l0.19-1.86c0-0.59-0.55-1.48-1.65-2.67c0.04-0.28,0.18-0.42,0.42-0.42h1.44c0.57,0,1.12,0.07,1.65,0.21
		c0.54-0.14,1.09-0.21,1.65-0.21c0.69,0,1.03,0.34,1.03,1.03h0.21c0.89-0.83,2.13-1.24,3.7-1.24h0.42v0.63
		c0,0.71-0.2,1.32-0.61,1.84v1.24c0.41,0.42,0.61,1.72,0.61,3.91v3.93c0,0.13-0.07,0.19-0.21,0.19l0.21,0.42
		c-0.14,0.72-0.21,1.13-0.21,1.23c0,0.15,0.07,0.36,0.21,0.63c-0.1,1.55-0.37,2.51-0.82,2.88v0.21c0,0.28,0.2,0.42,0.61,0.42
		c-0.27,2.34-0.4,3.91-0.4,4.73v1.03c0,0.65,0.06,1.33,0.19,2.05c-0.27,1.6-0.4,2.77-0.4,3.5c0.27,0.51,0.4,1.06,0.4,1.65v0.42
		c0,0.75-0.06,1.71-0.19,2.88c0.51,1.99,0.99,3.02,1.44,3.09h2.47c0.13,0,0.68,0.14,1.65,0.42c0.96-3.04,1.44-4.89,1.44-5.56
		c-0.09-1.1-0.22-1.65-0.4-1.65c0.01-0.45,0.29-2.04,0.82-4.75l-0.82-1.03l0.19-3.3c0-1.13-0.13-2.57-0.4-4.33
		c0.25-1.23,0.45-1.84,0.61-1.84l-0.21-0.42v-3.7c0-0.31-0.06-0.59-0.19-0.82c0.13-0.25,0.19-0.52,0.19-0.82
		c0-0.15-0.06-0.36-0.19-0.63c0.23-1.73,0.5-2.83,0.82-3.3c-0.83-2.52-1.24-3.96-1.24-4.33l2.68-0.61c0.14,0,0.21,0.07,0.21,0.21
		l0.4-0.21h0.82c0.33,0,0.61,0.55,0.82,1.65c0.31,0,0.59,0.07,0.82,0.21c0-0.96,0.55-1.78,1.65-2.47c0.27,0,0.96,0.13,2.07,0.4
		c0.04-0.27,0.18-0.4,0.4-0.4c0.2,0,0.41,0.2,0.63,0.61c-0.56,0-1.11,0.82-1.65,2.47l0.19,2.07v4.33l0.21,1.02h-0.21
		c0,0.14,0.07,0.21,0.21,0.21l-0.21,1.03c0,1.22,0.21,2.11,0.63,2.68c-0.42,0.96-0.69,1.44-0.82,1.44c0.18,1.1,0.39,1.65,0.61,1.65
		l-0.21,1.44v1.45c0,0.13-0.07,0.19-0.21,0.19l0.42,1.45c-0.14,0.26-0.21,0.46-0.21,0.61c0.28,0.89,0.42,1.51,0.42,1.86
		c0,0.75-0.07,1.71-0.21,2.88l0.4,3.3c-1.1,1.38-1.65,2.27-1.65,2.68l0.82,1.44c0,0.27-0.13,0.75-0.4,1.45
		c0.27,0.74,0.4,1.7,0.4,2.88c0,1.12-0.82,2.91-2.47,5.36c-0.27,0-1.16,0.62-2.67,1.86c-1.53,0.55-2.84,0.82-3.93,0.82
		C53.81,219.65,52.91,219.37,51.26,218.82z"/>
	<path d="M86.36,219.65c-1,0.41-1.62,0.61-1.86,0.61c-1.03-0.28-1.58-0.42-1.65-0.42c-0.45,0.28-0.8,0.42-1.03,0.42
		c0-0.19-0.2-0.4-0.61-0.61c0.13-0.76,0.19-1.31,0.19-1.65c-0.52-1.25-0.86-2.76-1.02-4.54c-1.1-2.34-1.65-3.78-1.65-4.33
		c0-0.44-0.76-1.74-2.28-3.91c-0.9-1.99-1.59-3.09-2.05-3.3c0,0.45-0.07,0.8-0.21,1.03c0.28,1.08,0.48,3.34,0.61,6.79
		c-0.34,0-0.55,0.27-0.61,0.82c0,0.97,0.34,2.41,1.03,4.33c-0.11,0.55-0.25,0.82-0.42,0.82c0,0.12,0.21,1.22,0.63,3.3
		c-0.23,0.42-1.39,0.83-3.51,1.24h-0.61c-0.34,0-0.96-0.14-1.86-0.42l-1.03,0.21c-0.51-0.27-1.06-0.4-1.65-0.4l-0.61,0.4
		c-0.2,0-0.41-0.2-0.63-0.61v-0.82c0.51,0,0.85-1.1,1.03-3.3c0.14,0,0.21-0.07,0.21-0.21c-0.1-0.96-0.24-1.44-0.42-1.44l0.21-1.45
		v-5.77c0.28-0.98,0.42-1.53,0.42-1.65c-0.28-0.45-0.42-0.86-0.42-1.23v-0.21c0-0.49,0.27-1.04,0.82-1.65c0-0.36-0.2-0.83-0.61-1.44
		v-1.03c0-0.19,0.13-1.29,0.4-3.3c0-0.15-0.06-0.36-0.19-0.61c0.13-0.25,0.19-0.52,0.19-0.82l-0.19-1.03
		c0.13-0.27,0.19-0.47,0.19-0.61l-0.19-0.42c0-0.14,0.06-0.21,0.19-0.21l-0.19-1.02v-1.45c0.55-1.51,0.82-2.33,0.82-2.47
		c-0.72-0.47-1.21-1.02-1.45-1.65c0-0.33,0.14-1.29,0.42-2.88c-0.32-5.5-0.67-8.26-1.03-8.26c-0.19,0-0.4-0.2-0.61-0.61v-0.61
		c0-0.23,0.48-0.5,1.44-0.82c1.58,0.69,2.48,1.03,2.68,1.03h1.03c1.3-0.42,2.13-0.63,2.47-0.63c0.14,0,0.34,0.07,0.61,0.21
		l1.24-0.21c0.27,0.04,0.4,0.18,0.4,0.42c0,0.96-0.13,1.44-0.4,1.44c0,1.11,0.82,3.72,2.47,7.84v0.21h-0.21
		c0,0.38,0.62,2.23,1.86,5.56c0,1.28,0.68,2.93,2.05,4.94h0.42v-0.82c0-0.46,0.13-1.43,0.4-2.89l-0.21-1.44h0.21l-0.21-0.4v-2.47
		l0.84-1.24c-0.48,0-0.83-0.75-1.03-2.26h0.19c0-0.14-0.06-0.21-0.19-0.21c0.27-1.44,0.4-2.54,0.4-3.3
		c-0.33-3.3-0.74-4.94-1.23-4.94v-0.21c0-0.23,0.41-0.5,1.23-0.82c3.71,0.45,5.7,0.87,5.98,1.24v0.19c2.11-0.76,3.28-1.24,3.51-1.44
		c0.27,0.04,0.4,0.18,0.4,0.42c0,0.18-0.34,0.73-1.02,1.65c-0.11,1.37-0.25,2.05-0.42,2.05c0,0.14,0.07,0.21,0.21,0.21
		c-0.14,2.75-0.21,4.81-0.21,6.19v2.47c0,0.3-0.07,0.58-0.21,0.82l0.42,1.02c0,0.14-0.07,0.21-0.21,0.21l0.21,1.03
		c0,0.5-0.07,1.11-0.21,1.86c0.14,0.71,0.21,1.53,0.21,2.47c-0.41,0.5-0.61,0.97-0.61,1.44c0.02,0.55,0.16,0.82,0.4,0.82l-0.21,2.47
		v2.07c0,0.41,0.07,0.61,0.21,0.61l-0.21,1.03v6.17c0,0.69,0.07,1.72,0.21,3.1c-0.18,0-0.39,0.41-0.61,1.23
		c-0.11,0-0.31,0.21-0.61,0.61c0.24,0,0.44,1.93,0.61,5.78c0.82,0.34,1.23,0.89,1.23,1.65v0.4c-0.61,0-1.02,0.07-1.23,0.21
		C89.07,219.95,88.04,219.74,86.36,219.65z"/>
	<path d="M109.96,221.3c0.09-1.24,0.22-1.86,0.4-1.86c-0.27-0.55-0.4-1.03-0.4-1.44c0.27-1.29,0.4-2.33,0.4-3.1v-3.09
		c0.83,0,1.24-0.14,1.24-0.42v-0.19c-0.97-1-1.52-3.82-1.65-8.45c-0.14,0-0.21-0.2-0.21-0.61c0-0.11,0.07-0.52,0.21-1.24
		c-0.73-1.38-2.32-2.68-4.75-3.91l-1.84-1.24h-0.63v1.24c0,0.13-0.06,0.19-0.19,0.19c0.13,0.27,0.19,0.48,0.19,0.63
		c0,2.5,0.14,4.9,0.42,7.2c-0.18,0-0.53,0.55-1.03,1.65c0.19,0,0.61,0.41,1.24,1.24c-0.42,2.36-0.63,4.14-0.63,5.35l0.42,1.45
		c-0.14,0-0.21,0.06-0.21,0.19c0.2,0.03,0.75,1.62,1.65,4.75c0.14,0,0.21,0.13,0.21,0.4h-0.21l-0.82,0.61
		c-1.37-0.27-2.26-0.4-2.68-0.4c-1.22,0.14-1.97,0.21-2.26,0.21c0-0.33-0.34-0.82-1.03-1.45c-1.45,0.99-2.62,1.54-3.51,1.65
		c-0.24-0.13-0.51-0.19-0.82-0.19v-0.82c0.42-0.52,0.97-2.3,1.65-5.36c-0.16-0.22-0.3-0.9-0.4-2.07c0.27-0.95,0.4-1.77,0.4-2.47
		v-3.91c0-0.14,0.07-0.21,0.21-0.21l-0.21-0.4v-2.89c0-0.3,0.07-0.58,0.21-0.82c-0.55-0.7-0.82-1.93-0.82-3.7
		c0-0.56,0.14-1.59,0.42-3.1c0-0.1-0.07-0.51-0.21-1.23c0-0.93,0.27-2.57,0.82-4.94v-0.42c-0.51,0-0.99-0.48-1.44-1.44l0.19-1.03
		c0-0.14-0.06-0.21-0.19-0.21l0.61-3.49c0-0.52-0.2-1.55-0.61-3.1v-1.86c0-0.87-0.41-1.7-1.24-2.47v-1.02c0.1,0,1.34-0.21,3.72-0.63
		c0.55,0.94,0.82,1.49,0.82,1.65h0.4c0.1-0.96,0.3-1.44,0.61-1.44c0.42,0.14,0.63,0.28,0.63,0.42c2.32-0.14,3.62-0.41,3.91-0.82
		h0.82v0.82c-0.45,0-0.73,1.1-0.82,3.3c0,0.34,0.07,2.13,0.21,5.35c-0.14,1.8-0.21,3.24-0.21,4.33c-0.55,0.2-0.82,0.41-0.82,0.61
		v0.42c0.55,0.44,0.82,0.99,0.82,1.65c3.73-3.4,6.06-5.94,7.01-7.63c-0.14-1.79-0.21-3.23-0.21-4.33v-1.86l-1.03-1.44v-0.61h0.21
		c1.38,0.05,2.07,0.19,2.07,0.4c1.1-0.27,1.65-0.47,1.65-0.61c1.4,0.28,2.36,0.42,2.88,0.42c0-0.34,0.69-0.69,2.07-1.03h0.19
		c0.31,0,0.59,0.07,0.82,0.21c0.25-0.14,0.52-0.21,0.82-0.21h0.63v0.21c-0.97,1.31-1.45,3.03-1.45,5.14v1.45
		c0,0.3-0.06,0.58-0.19,0.82c0.13,0.54,0.33,1.02,0.61,1.44v0.61c0,0.08-0.14,0.29-0.42,0.63l0.63,3.09c0,0.55-1.03,1.23-3.1,2.05
		c-2.06,2.14-3.09,3.31-3.09,3.51c0.33,0,1.5,0.76,3.51,2.28l2.68,1.02v0.82c0,0.98-0.27,2.29-0.82,3.93
		c0.27,0.85,0.4,2.15,0.4,3.91c0,1.79-0.13,2.68-0.4,2.68c0.27,0.63,0.4,1.31,0.4,2.05c-0.24,1.65-0.44,2.47-0.61,2.47l0.21,0.42
		v4.73c0,1.04,0.41,2.14,1.23,3.3v0.21c-0.22,0-0.49,0.14-0.82,0.42l-1.03-0.21c-2.52,0.27-4.23,0.82-5.14,1.65h-0.63
		c-0.13,0-0.19-0.07-0.19-0.21c-0.51,0.28-1.06,0.42-1.66,0.42H109.96z"/>
	<path d="M131.33,220.05h-1.44l-1.23,0.21c-0.17,0-0.66-0.41-1.45-1.24l-1.65,1.45c-0.98-0.14-1.53-0.21-1.65-0.21l-1.23,0.21
		l-0.21-0.42c0.69-0.45,1.03-1.41,1.03-2.88c-0.69-0.11-1.03-0.32-1.03-0.63c0-0.68,0.13-1.02,0.4-1.02c0-0.14-0.06-0.21-0.19-0.21
		c0.27-1.38,0.4-2.62,0.4-3.72v-0.21c0-0.13,0.07-0.19,0.21-0.19l-0.21-0.42v-1.86c0-0.3,0.07-0.58,0.21-0.82
		c-0.41-0.72-0.68-2.37-0.82-4.94c0.27-1.1,0.4-2.27,0.4-3.51l-0.19-1.23c0-0.14,0.06-0.21,0.19-0.21l-0.19-1.03
		c0-0.29,0.06-1.04,0.19-2.26l-0.19-1.03c0.27-0.95,0.4-1.8,0.4-2.57c0-0.53-0.07-0.9-0.21-1.13c0.14-0.24,0.28-2.3,0.42-6.19
		l-1.03-6.59c0-0.15,0.07-0.36,0.21-0.61c0-0.2-0.55-1.1-1.65-2.68v-0.61h1.03c0,0.22,0.13,0.42,0.4,0.61l2.07-0.21h1.44
		c0.11,0,0.59,0.48,1.44,1.44c0-0.18,0.41-0.59,1.24-1.23c0.42,0,1.72,0.07,3.91,0.21c1.46-0.42,2.49-0.63,3.09-0.63
		c0.55,0.69,0.82,1.17,0.82,1.45h0.42c0.76-0.97,1.38-1.45,1.86-1.45c0.51,0,1.53,0.14,3.09,0.42l3.51-0.61h0.82
		c0.27,0.04,0.4,0.18,0.4,0.4c0,0.17-0.06,0.86-0.19,2.07c0.27,2.74,0.54,4.66,0.82,5.77c-0.11,0.55-0.25,0.82-0.42,0.82
		c0,0.14,0.07,0.21,0.21,0.21c-0.14,1.23-0.34,1.84-0.61,1.84h-0.21c-0.72-0.72-1.48-1.13-2.26-1.23v-0.42h-0.42
		c-0.68,0.53-1.43,0.94-2.26,1.24c0-0.28-0.14-0.42-0.42-0.42c-0.26,0.14-0.46,0.21-0.61,0.21c-0.34-0.82-0.89-1.23-1.65-1.23
		c0,0.27-0.13,0.4-0.4,0.4h-0.42c-1.54-0.41-2.71-0.61-3.51-0.61c0,0.22-0.27,0.49-0.82,0.82c-0.45-0.28-0.86-0.42-1.23-0.42
		c-0.37,2.01-0.78,3.32-1.24,3.93l1.03,2.67l1.44,0.42h0.21c1.04,0,2.14-0.34,3.3-1.03c1.06,0,1.81-0.41,2.26-1.23h0.21
		c0,0.41,0.07,0.61,0.21,0.61c-0.17,1.48-0.31,2.37-0.42,2.68c0.55,0.18,0.82,0.8,0.82,1.86v0.82c-0.27,0.88-0.47,2.26-0.61,4.12
		c0.14,0.26,0.21,0.46,0.21,0.61h-0.21l0.21,0.4v0.63c0,0.71-0.2,1.12-0.61,1.23c-0.92-0.55-1.67-1.23-2.28-2.05h-0.21
		c-0.71,0-1.87,0.06-3.49,0.19c-0.25-0.13-0.52-0.19-0.82-0.19c-0.1,0.96-0.24,1.44-0.42,1.44l0.21,0.4v3.51
		c0,0.99-0.34,1.54-1.03,1.65c0.58,1.13,0.93,2.71,1.03,4.75c-0.14,0-0.21,0.06-0.21,0.19c0.7,0.28,1.18,0.42,1.44,0.42
		c0.04-0.28,0.18-0.42,0.42-0.42c0.45,0.28,0.86,0.42,1.23,0.42c0.15,0,0.36-0.07,0.63-0.21l0.4,0.21l1.86-0.21
		c0.89,0.28,1.51,0.42,1.86,0.42h0.4c0-0.83,0.76-1.24,2.28-1.24h1.02l1.45,0.42c0.65-0.97,1.06-1.45,1.23-1.45h0.42
		c0,0.83,0.27,1.24,0.82,1.24v4.73l0.19,1.24l-0.19,0.4c0.13,0.97,0.19,1.79,0.19,2.47c-0.13,0.27-0.19,0.48-0.19,0.63l-1.03-0.21
		h-2.26c-0.27,0.41-1.85,0.75-4.75,1.03l-2.26-1.86c0,1.1-0.34,1.65-1.03,1.65c-0.58,0.27-0.93,0.4-1.03,0.4L131.33,220.05z"/>
	<path d="M167.86,219.44c-0.73,0.69-1.49,1.03-2.26,1.03h-0.84c-1.1,0-1.65-0.34-1.65-1.03c0.22,0,0.49-0.27,0.82-0.82v-3.91
		c0-1.52,0.14-2.83,0.42-3.93c-0.14-0.27-0.21-0.47-0.21-0.61h0.21c0-0.14-0.07-0.21-0.21-0.21l0.21-1.23
		c0-4.77-0.75-7.59-2.26-8.45c-2.56-0.97-4.15-1.45-4.75-1.45l0.42,6.61h-0.21l0.21,0.4v2.07c0,0.45-0.34,1.48-1.03,3.09
		c0.55,1.04,0.82,1.73,0.82,2.07c-0.27,0.49-0.4,1.04-0.4,1.65v0.61c0,0.56,0.41,1.86,1.23,3.91v0.21
		c-0.09,0.41-0.64,0.61-1.65,0.61c0-0.27-0.13-0.4-0.4-0.4c-0.76,0.13-1.31,0.19-1.65,0.19c-0.14-0.24-0.21-0.51-0.21-0.82
		c-1.08,0-2.45,0.48-4.12,1.45c-0.26,0-0.81-0.14-1.65-0.42c-0.25,0.14-0.52,0.21-0.82,0.21v-0.21c0.68-1.55,1.02-2.58,1.02-3.09
		c0-2.61,0.14-3.91,0.42-3.91c-0.28-1.71-0.42-3.09-0.42-4.14l0.21-1.44c-0.41-1.16-0.61-1.92-0.61-2.26
		c0.14-0.27,0.21-0.47,0.21-0.61c-0.14-0.27-0.21-0.48-0.21-0.63c0.41-0.13,0.61-0.54,0.61-1.23c-0.27-0.89-0.4-1.51-0.4-1.86
		l0.4-0.61v-0.21c0-1.01,0.07-1.77,0.21-2.26l-0.61-8.87c0.22,0,0.49-0.27,0.82-0.82v-0.21l-0.82-1.65c0-0.13,0.06-0.19,0.19-0.19
		c0-0.14-0.06-0.21-0.19-0.21l0.4-3.09c-0.37-0.75-0.64-3.09-0.82-7.01c-0.4-0.81-0.74-1.22-1.03-1.24l-0.19-1.02l0.4-0.21h1.44
		l2.28,0.82h0.19c1.21-0.31,2.03-0.66,2.47-1.03h0.84c0,0.46,0.48,0.74,1.44,0.82c0.27-0.69,0.75-1.03,1.44-1.03
		c0.14,0,0.21,0.07,0.21,0.21l1.03-0.4c0.74,0.13,1.36,0.19,1.84,0.19h0.82c0.14,0,0.21,0.07,0.21,0.21
		c0.27-0.14,0.47-0.21,0.61-0.21c1.43,0,2.6,0.21,3.51,0.63c0.74-0.14,1.36-0.21,1.86-0.21h0.42c2.33,1.57,3.49,2.74,3.49,3.51
		c0.14,1.57,0.41,2.95,0.82,4.12v2.05c0,0.88,0.27,2.33,0.82,4.33v0.42c0,0.27-0.34,0.4-1.02,0.4v0.61c0,0.38-0.14,0.79-0.42,1.24
		c0.14,0.75,0.21,1.3,0.21,1.65c-0.36,0-0.63,0.55-0.82,1.65l-0.42-0.21c-0.47,0.83-1.09,1.24-1.84,1.24l0.19,0.4h-0.61l-0.4-0.19
		l-0.63,0.82v0.19c0,0.25,0.62,0.52,1.86,0.82c0,0.65,0.89,1.27,2.68,1.86c0,0.34,0.34,1.03,1.03,2.07l-0.21,0.4
		c0.14,0.27,0.21,0.48,0.21,0.63h-0.21c0.14,0.26,0.21,0.46,0.21,0.61c-0.09,1.24-0.23,1.86-0.42,1.86l0.21,0.4
		c0,0.14-0.07,0.21-0.21,0.21l0.42,1.44c-0.14,1.38-0.28,2.07-0.42,2.07c0.14,0.29,0.28,0.9,0.42,1.84
		c-0.11,1.52-0.25,2.28-0.42,2.28c0.41,1.49,0.61,2.38,0.61,2.68h-0.19l0.19,0.4v1.24c-0.55,0-0.96,0.28-1.23,0.82
		c0,0.14,0.55,0.69,1.65,1.65v0.4c0,0.29-0.82,0.71-2.47,1.24C170.19,220.05,169.09,219.71,167.86,219.44z M160.85,188.94h2.68
		c0.23,0,0.64-0.89,1.23-2.68h0.21l-0.21-0.4c0-0.14,0.07-0.21,0.21-0.21c-0.27-1.03-0.4-1.99-0.4-2.88l-1.03,0.19
		c-2.27,0-3.72-0.41-4.33-1.23H159c-0.44,0.27-0.78,0.4-1.02,0.4v0.21c0,0.98,0.13,1.73,0.4,2.26l-0.4,3.93l1.65,0.82
		C160.07,189.08,160.48,188.94,160.85,188.94z"/>
	<path d="M198.74,221.09c-0.1-0.69-0.3-1.03-0.61-1.03c-0.75,0.14-1.3,0.21-1.65,0.21c-0.55-0.21-0.82-0.41-0.82-0.61
		c-2.48,0.22-3.72,0.55-3.72,1.02v0.21h-0.21c-0.41-0.14-0.61-0.55-0.61-1.23v-0.21c0.55,0,0.82-0.69,0.82-2.07l-0.21-2.67
		c0.19-1.1,0.4-1.65,0.63-1.65l-0.42-3.51c0.33-2.09,0.68-3.4,1.03-3.93c-0.19-0.56-0.54-0.97-1.03-1.23
		c0.14-3.23,0.21-5.64,0.21-7.22v-1.65l-0.21-2.47c0.31,0,0.52-0.34,0.61-1.02l-1.02-1.86c0.13-1.41,0.33-2.3,0.61-2.68
		c0-0.14-0.07-0.21-0.21-0.21l0.21-1.03v-1.44c0-0.65-0.07-1.33-0.21-2.05c0.14-1.24,0.28-1.86,0.42-1.86l-0.21-0.42v-0.4
		c0-0.96-0.07-2.47-0.21-4.54h0.21c-0.19-0.6-0.47-1.15-0.82-1.65v-0.21c0.41,0,0.61-0.2,0.61-0.61h0.21
		c1.1,0.58,1.65,0.93,1.65,1.03l1.03-0.21h1.23l0.82,0.61c0-0.4,0.27-0.74,0.82-1.02h1.24c0.06-0.55,0.27-0.82,0.61-0.82
		c0,1.8,0.82,3.38,2.47,4.73c0,1.26,1.24,3.18,3.72,5.77c0.96,1.3,1.44,1.99,1.44,2.07c2.75-2.23,4.12-4.36,4.12-6.4
		c1.38-1.68,2.07-3.12,2.07-4.33c0-0.68,0.82-1.02,2.47-1.02h0.19c0.24,0.72,0.93,1.27,2.07,1.65c0,0.13,0.07,0.19,0.21,0.19h0.4
		c0.73-1.23,1.42-1.84,2.07-1.84h0.61c0,0.64,0.13,1.11,0.4,1.44l-0.4,1.44c0.14,1.38,0.21,2.41,0.21,3.1h-0.21
		c0.14,0.25,0.28,0.93,0.4,2.05h-0.19l0.19,0.42v1.65c0,0.72-0.27,2.02-0.82,3.91c0,0.41,0.21,0.61,0.63,0.61v0.61
		c-0.28,0.34-0.55,1.1-0.82,2.28l0.4,3.7c-0.27,0.6-0.4,1.7-0.4,3.3v3.1c0,0.15,0.14,0.9,0.4,2.26c-0.34,0.28-0.55,0.42-0.61,0.42
		c0.14,0.68,0.27,1.02,0.4,1.02l-0.19,1.03c0,0.57,0.06,1.12,0.19,1.65c0,0.15-0.06,0.36-0.19,0.61l0.4,6.61
		c-0.14,0.26-0.21,0.46-0.21,0.61l0.21,0.4l-0.21,1.24l0.21,0.4c-0.14,0.25-0.21,0.52-0.21,0.82c0.02,0.4,0.44,0.74,1.24,1.03
		c0.14,0.24,0.21,0.51,0.21,0.82l-0.21,0.82h-0.21c-0.45-0.64-1.41-1.04-2.88-1.23c0-0.28-0.14-0.42-0.42-0.42h-0.82
		c0,0.41-0.41,0.61-1.23,0.61v-0.19l-0.42,0.19h-1.44l-2.07,0.21l-0.19-0.4c0-0.97,0.28-1.45,0.82-1.45v-1.02
		c0.41-1.55,0.61-2.72,0.61-3.51c0-0.14-0.07-0.21-0.21-0.21l0.21-1.03v-1.86c0-1.74-0.21-3.12-0.61-4.12l0.61-1.23
		c-0.33-0.28-0.61-0.42-0.82-0.42v-1.02c0-0.14,0.07-0.21,0.21-0.21c0-0.14-0.07-0.21-0.21-0.21l0.21-2.47v-3.3
		c0-0.55-0.14-1.44-0.42-2.68c0-0.2,0.34-0.61,1.03-1.23c-0.14-1.17-0.21-2.07-0.21-2.68h-0.21c-0.27,0.14-1.64,2.2-4.12,6.17
		c-0.36,0.23-0.83,1.46-1.44,3.72h-1.24c-0.43,0-1.26-1.65-2.47-4.94l-1.23-1.24l0.21-1.44h-0.21l-0.82,0.21
		c-1.17-1.44-1.93-2.68-2.28-3.72l-0.4-0.21v0.63c0,0.3,0.07,0.58,0.21,0.82l-0.63,1.03v0.82c0.28,0.97,0.42,1.52,0.42,1.65v1.02
		c0,0.31-0.07,0.59-0.21,0.82c0,0.14,0.07,0.21,0.21,0.21c-0.14,1.79-0.34,3.03-0.61,3.72c0.13,2.2,0.47,3.3,1.02,3.3
		c0,0.14-0.06,0.21-0.19,0.21l0.19,0.4c0,3.58-0.28,5.36-0.82,5.36l-0.4,0.19c0.14,0.14,0.28,1.17,0.4,3.1
		c0,0.14-0.06,0.21-0.19,0.21c0.13,0.58,0.26,2.16,0.4,4.73c-0.14,1.4-0.21,2.5-0.21,3.3H198.74z"/>
	<path d="M225.1,220.47c-0.28,0-0.42-0.14-0.42-0.42v-0.4c0.55-1.82,0.82-2.92,0.82-3.3l-0.4-1.03c0-0.54,0.28-1.78,0.82-3.72v-2.05
		c0-1.11,0.07-2.42,0.21-3.93l-0.42-1.44c0.14-1.03,0.41-1.79,0.82-2.26l-0.61-0.82c0.14-4.19,0.21-6.87,0.21-8.05
		c0-0.43,0.28-0.98,0.82-1.65v-0.19c-0.97-0.65-1.45-3.46-1.45-8.45c0.14-0.95,0.21-1.71,0.21-2.28l-0.21-1.44
		c0.14-0.71,0.21-1.53,0.21-2.47v-0.42c-0.31,0-0.66-0.27-1.03-0.82c-0.3-0.82-0.64-1.23-1.02-1.23v-0.82
		c1.67-0.17,2.63-0.31,2.88-0.42c0.74,0.14,1.4,0.21,1.97,0.21c1.98,0,2.97-0.34,2.97-1.03l2.47,0.21c0,0.24,0.14,0.58,0.42,1.03
		c-0.69,1.48-1.03,2.57-1.03,3.3c0,0.14,0.07,0.21,0.21,0.21l-0.21,1.02v6.8c0,0.31-0.07,0.59-0.21,0.82
		c0.14,0.25,0.21,0.52,0.21,0.82l-0.82,1.03v0.42c0.04,0.27,0.18,0.4,0.4,0.4c0,0.15-0.06,0.36-0.19,0.61
		c0,0.11,0.06,0.52,0.19,1.24l-0.19,1.03c0,0.3,0.21,2.57,0.61,6.8c-0.14,3.04-0.34,5.85-0.61,8.45c0.27,0.49,0.4,1.04,0.4,1.65
		c-0.32,0.96-0.53,1.44-0.61,1.44c0.69,1.77,1.03,3.62,1.03,5.56c-0.42,0.14-0.63,0.28-0.63,0.42c0,0.84,0.41,1.73,1.24,2.68
		c0,0.41,0.07,0.89,0.21,1.44c-0.28,0-0.42,0.13-0.42,0.4h-1.23c-0.31,0-0.59,0.07-0.82,0.21l-0.42-0.21l-0.4,0.21l-1.45-0.21
		l-3.09,0.63H225.1z"/>
	<path d="M256.38,219.65c-1,0.41-1.62,0.61-1.86,0.61c-1.03-0.28-1.58-0.42-1.65-0.42c-0.45,0.28-0.8,0.42-1.03,0.42
		c0-0.19-0.21-0.4-0.61-0.61c0.13-0.76,0.19-1.31,0.19-1.65c-0.52-1.25-0.86-2.76-1.02-4.54c-1.1-2.34-1.65-3.78-1.65-4.33
		c0-0.44-0.76-1.74-2.28-3.91c-0.9-1.99-1.59-3.09-2.05-3.3c0,0.45-0.07,0.8-0.21,1.03c0.28,1.08,0.49,3.34,0.61,6.79
		c-0.34,0-0.55,0.27-0.61,0.82c0,0.97,0.34,2.41,1.03,4.33c-0.11,0.55-0.25,0.82-0.42,0.82c0,0.12,0.21,1.22,0.63,3.3
		c-0.23,0.42-1.4,0.83-3.51,1.24h-0.61c-0.34,0-0.96-0.14-1.86-0.42l-1.03,0.21c-0.51-0.27-1.06-0.4-1.65-0.4l-0.61,0.4
		c-0.2,0-0.41-0.2-0.63-0.61v-0.82c0.51,0,0.85-1.1,1.03-3.3c0.14,0,0.21-0.07,0.21-0.21c-0.1-0.96-0.24-1.44-0.42-1.44l0.21-1.45
		v-5.77c0.28-0.98,0.42-1.53,0.42-1.65c-0.28-0.45-0.42-0.86-0.42-1.23v-0.21c0-0.49,0.28-1.04,0.82-1.65
		c0-0.36-0.21-0.83-0.61-1.44v-1.03c0-0.19,0.13-1.29,0.4-3.3c0-0.15-0.06-0.36-0.19-0.61c0.13-0.25,0.19-0.52,0.19-0.82l-0.19-1.03
		c0.13-0.27,0.19-0.47,0.19-0.61l-0.19-0.42c0-0.14,0.06-0.21,0.19-0.21l-0.19-1.02v-1.45c0.55-1.51,0.82-2.33,0.82-2.47
		c-0.72-0.47-1.21-1.02-1.45-1.65c0-0.33,0.14-1.29,0.42-2.88c-0.32-5.5-0.67-8.26-1.03-8.26c-0.19,0-0.4-0.2-0.61-0.61v-0.61
		c0-0.23,0.48-0.5,1.44-0.82c1.58,0.69,2.48,1.03,2.68,1.03h1.03c1.3-0.42,2.13-0.63,2.47-0.63c0.14,0,0.34,0.07,0.61,0.21
		l1.24-0.21c0.27,0.04,0.4,0.18,0.4,0.42c0,0.96-0.13,1.44-0.4,1.44c0,1.11,0.82,3.72,2.47,7.84v0.21h-0.21
		c0,0.38,0.62,2.23,1.86,5.56c0,1.28,0.68,2.93,2.05,4.94h0.42v-0.82c0-0.46,0.13-1.43,0.4-2.89l-0.21-1.44h0.21l-0.21-0.4v-2.47
		l0.84-1.24c-0.48,0-0.83-0.75-1.03-2.26h0.19c0-0.14-0.06-0.21-0.19-0.21c0.27-1.44,0.4-2.54,0.4-3.3
		c-0.33-3.3-0.74-4.94-1.23-4.94v-0.21c0-0.23,0.41-0.5,1.23-0.82c3.7,0.45,5.7,0.87,5.98,1.24v0.19c2.11-0.76,3.28-1.24,3.51-1.44
		c0.27,0.04,0.4,0.18,0.4,0.42c0,0.18-0.34,0.73-1.02,1.65c-0.11,1.37-0.25,2.05-0.42,2.05c0,0.14,0.07,0.21,0.21,0.21
		c-0.14,2.75-0.21,4.81-0.21,6.19v2.47c0,0.3-0.07,0.58-0.21,0.82l0.42,1.02c0,0.14-0.07,0.21-0.21,0.21l0.21,1.03
		c0,0.5-0.07,1.11-0.21,1.86c0.14,0.71,0.21,1.53,0.21,2.47c-0.41,0.5-0.61,0.97-0.61,1.44c0.02,0.55,0.16,0.82,0.4,0.82l-0.21,2.47
		v2.07c0,0.41,0.07,0.61,0.21,0.61l-0.21,1.03v6.17c0,0.69,0.07,1.72,0.21,3.1c-0.18,0-0.39,0.41-0.61,1.23
		c-0.11,0-0.31,0.21-0.61,0.61c0.24,0,0.44,1.93,0.61,5.78c0.82,0.34,1.23,0.89,1.23,1.65v0.4c-0.61,0-1.02,0.07-1.23,0.21
		C259.08,219.95,258.06,219.74,256.38,219.65z"/>
	<path d="M266.11,221.3c-0.34,0-0.55-0.28-0.61-0.82h-0.21c-0.38,0-0.79,0.13-1.24,0.4v-0.4c0.14-0.27,0.21-0.48,0.21-0.63
		c-0.14,0-0.21-0.06-0.21-0.19c1.52,0,2.28-2.61,2.28-7.84c-0.28-1.9-0.42-3.13-0.42-3.72l0.61-3.09c-0.13-1.01-0.33-1.91-0.61-2.68
		c0.22,0,0.49-0.27,0.82-0.82c-0.18-0.45-0.46-0.86-0.82-1.23l0.21-1.45v-3.09c0-0.38,0.13-0.79,0.4-1.23
		c-0.05-0.41-0.39-0.89-1.02-1.45c0.13-1.22,0.19-1.97,0.19-2.26l-0.19-1.03l0.19-1.03c-0.13-1.37-0.19-2.4-0.19-3.09h0.19
		c-0.1-0.17-0.23-1.13-0.4-2.88h0.21c-0.42-0.89-0.83-2.82-1.24-5.78c-0.43,0-1.25-0.96-2.47-2.88l-0.21-1.03l0.42-0.21h0.4
		c0.49,0,1.11,0.07,1.86,0.21c0.27-0.14,0.47-0.21,0.61-0.21c0.57,0.28,0.99,0.42,1.24,0.42c0.56-0.28,0.97-0.42,1.23-0.42
		c2.07,0,3.79,0.41,5.15,1.24l0.42-0.82l1.44,0.21h0.21l4.12-0.82l4.73,1.23h1.45c0,0.45,1.03,1.55,3.09,3.3l0.21,1.45
		c-0.14,0.26-0.21,0.46-0.21,0.61c0,0.28,0.62,1.03,1.86,2.26c0,0.11,0.06,0.52,0.19,1.24c-0.11,0.55-0.24,0.82-0.4,0.82l0.21,0.4
		c0,0.14-0.07,0.21-0.21,0.21l0.21,0.82l-0.21,1.44c0.14,0.72,0.21,1.14,0.21,1.24c-0.1,0.96-0.24,1.44-0.42,1.44l0.21,0.4v5.15
		c0,0.55-0.41,1.24-1.24,2.07c0.33,0.44,0.54,1.06,0.63,1.86c-0.14,0.54-0.21,1.02-0.21,1.44c0,0.14,0.27,0.89,0.82,2.26
		c-0.28,1.37-0.42,2.54-0.42,3.51l0.21,1.03h-0.21l0.21,0.4c0,0.15-0.07,0.36-0.21,0.63c0,0.06,0.07,0.34,0.21,0.82
		c-0.27,1.85-0.4,3.02-0.4,3.49l0.19,0.42c0,0.21-0.34,0.89-1.02,2.07c-0.8,1.85-1.35,2.81-1.65,2.88c0,0.53-0.41,0.94-1.24,1.24
		c-0.79,1.1-1.26,1.65-1.44,1.65c-0.48,0-1.17-0.34-2.07-1.03h-0.19c0,0.72-0.56,1.13-1.66,1.23c0,0.14-0.06,0.21-0.19,0.21h-0.42
		c-0.68-0.96-1.09-1.44-1.23-1.44h-1.45c-0.48,0-1.65-0.14-3.49-0.42c-0.27,0.14-0.48,0.21-0.63,0.21c0-0.14-0.06-0.21-0.19-0.21
		c0,0.42-0.83,0.9-2.49,1.45c-0.94-0.14-1.69-0.21-2.26-0.21c-0.56,0.69-0.9,1.03-1.03,1.03H266.11z M280.33,210.78
		c0.83-0.61,1.24-1.44,1.24-2.47v-1.65l-0.42-0.61c0-0.31,0.07-0.59,0.21-0.82c-0.14-0.74-0.21-1.36-0.21-1.86v-1.65
		c0.28-0.34,0.42-0.55,0.42-0.61c-0.56-0.42-0.84-1.79-0.84-4.12l1.03-7.01l0.82-0.61c-0.68-1.02-1.09-2.54-1.23-4.54
		c-0.64-1.37-1.6-2.05-2.89-2.05c0-0.24-0.48-0.38-1.44-0.42h-0.42l-2.05,0.61c-0.27-0.13-0.47-0.19-0.61-0.19v2.88
		c-0.24,0.55-0.51,0.82-0.82,0.82v0.21l1.02,1.03c0,0.5-0.06,1.11-0.19,1.84l0.19,0.42c-0.13,0.74-0.19,1.4-0.19,1.95
		c0,0.38,0.06,0.69,0.19,0.94c-0.13,0.26-0.19,0.46-0.19,0.61l0.19,2.05c0,0.48-0.13,1.93-0.4,4.33c0.14,0.55,0.21,1.03,0.21,1.45
		c-0.25,0-0.52,0.61-0.82,1.84c0.55,0.2,0.82,0.41,0.82,0.63v2.05c0,0.14-0.07,0.21-0.21,0.21l0.21,0.4v1.86l0.19,1.44h-0.19
		c0.13,0.75,0.47,1.3,1.02,1.65l1.45-0.19h0.61l1.44,0.19C278.47,211.12,279.09,210.92,280.33,210.78z"/>
</g>
<g>
	<path d="M50.9,233.38c0,3.62-1.68,4.85-3.12,4.85c-1.68,0-3.05-1.53-3.05-4.83c0-3.42,1.53-4.85,3.15-4.85
		C49.55,228.55,50.9,230.12,50.9,233.38z M46.24,233.39c0,1.55,0.28,3.65,1.62,3.65c1.28,0,1.54-2.19,1.54-3.65
		c0-1.44-0.26-3.64-1.58-3.64C46.49,229.74,46.24,231.95,46.24,233.39z"/>
	<path d="M52.57,231.13c0-1.1-0.05-1.67-0.08-2.42h1.3l0.07,1.12h0.04c0.4-0.75,1.16-1.28,2.15-1.28c1.3,0,2.27,0.96,2.27,3.22v6.29
		h-1.48v-6.04c0-1.12-0.21-2.23-1.3-2.23c-0.63,0-1.22,0.52-1.41,1.52c-0.05,0.23-0.07,0.52-0.07,0.84v5.9h-1.48V231.13z"/>
	<path d="M60.41,224.67h1.48v13.4h-1.48V224.67z"/>
	<path d="M64.85,228.71l1.24,5.38c0.17,0.73,0.26,1.34,0.39,1.93h0.04c0.1-0.53,0.26-1.24,0.4-1.92l1.11-5.39h1.48l-1.53,6.01
		c-0.58,2.36-1.23,4.62-2.33,6.04c-0.65,0.84-1.35,1.27-1.69,1.42l-0.55-1.27c0.44-0.24,0.91-0.65,1.33-1.17
		c0.38-0.5,0.69-1.12,0.84-1.58c0.08-0.23,0.11-0.33,0.11-0.47c0-0.12-0.01-0.23-0.05-0.35l-2.36-8.64H64.85z"/>
	<path d="M73.56,236.52c0.33,0.22,0.91,0.49,1.52,0.49c0.85,0,1.39-0.52,1.39-1.36c0-0.7-0.26-1.2-1.2-1.83
		c-1.22-0.79-1.9-1.6-1.9-2.67c0-1.52,1.14-2.59,2.59-2.59c0.73,0,1.28,0.24,1.67,0.48l-0.4,1.13c-0.35-0.25-0.75-0.42-1.25-0.42
		c-0.8,0-1.21,0.59-1.21,1.19c0,0.63,0.24,0.98,1.17,1.62c1.08,0.7,1.94,1.55,1.94,2.86c0,1.88-1.28,2.78-2.82,2.78
		c-0.68,0-1.45-0.21-1.85-0.54L73.56,236.52z"/>
	<path d="M85.17,233.38c0,3.62-1.68,4.85-3.12,4.85c-1.68,0-3.05-1.53-3.05-4.83c0-3.42,1.53-4.85,3.15-4.85
		C83.82,228.55,85.17,230.12,85.17,233.38z M80.5,233.39c0,1.55,0.28,3.65,1.62,3.65c1.28,0,1.54-2.19,1.54-3.65
		c0-1.44-0.26-3.64-1.58-3.64C80.76,229.74,80.5,231.95,80.5,233.39z"/>
	<path d="M89.87,231.13c0-1.1-0.05-1.67-0.08-2.42h1.31l0.07,1.15h0.04c0.4-0.76,1.11-1.31,2.11-1.31c0.87,0,1.61,0.42,1.96,1.43
		h0.04c0.25-0.46,0.57-0.84,0.92-1.07c0.37-0.24,0.81-0.36,1.3-0.36c1.27,0,2.25,0.92,2.25,3.31v6.21h-1.48v-5.87
		c0-1.22-0.18-2.41-1.31-2.41c-0.62,0-1.16,0.52-1.37,1.4c-0.05,0.25-0.06,0.54-0.06,0.84v6.02h-1.48v-6.15
		c0-1.03-0.18-2.13-1.29-2.13c-0.62,0-1.22,0.53-1.39,1.52c-0.04,0.24-0.06,0.51-0.06,0.8v5.95h-1.48V231.13z"/>
	<path d="M107.5,235.52c0,1.03,0.05,1.86,0.08,2.55h-1.3l-0.1-0.98h-0.04c-0.29,0.46-1,1.13-2.01,1.13c-1.63,0-2.28-1.27-2.28-3.6
		v-5.92h1.49v5.7c0,1.47,0.24,2.56,1.26,2.56c0.88,0,1.26-0.82,1.35-1.25c0.06-0.25,0.08-0.53,0.08-0.83v-6.18h1.49V235.52z"/>
	<path d="M114.16,237.84c-0.33,0.19-0.89,0.35-1.55,0.35c-2.04,0-3.43-1.65-3.43-4.75c0-2.69,1.36-4.87,3.71-4.87
		c0.5,0,1.05,0.14,1.32,0.3l-0.29,1.21c-0.2-0.1-0.57-0.26-1.07-0.26c-1.5,0-2.16,1.79-2.16,3.62c0,2.19,0.84,3.5,2.2,3.5
		c0.4,0,0.75-0.09,1.08-0.26L114.16,237.84z"/>
	<path d="M115.44,224.67h1.48v5.04h0.04c0.21-0.33,0.49-0.62,0.79-0.82c0.34-0.21,0.72-0.33,1.24-0.33c1.19,0,2.19,0.94,2.19,3.3
		v6.21h-1.48v-6.04c0-1.15-0.26-2.22-1.27-2.22c-0.69,0-1.22,0.5-1.45,1.49c-0.04,0.2-0.06,0.48-0.06,0.7v6.07h-1.48V224.67z"/>
	<path d="M128.16,226.21v2.49h1.8v1.13h-1.8v5.57c0,1.22,0.44,1.54,0.98,1.54c0.24,0,0.43-0.02,0.6-0.06l0.07,1.15
		c-0.27,0.1-0.61,0.15-1.11,0.15c-0.59,0-1.11-0.16-1.47-0.57c-0.38-0.43-0.56-1.05-0.56-2.35v-5.43h-1.14v-1.13h1.14v-2.06
		L128.16,226.21z"/>
	<path d="M136.86,233.38c0,3.62-1.68,4.85-3.12,4.85c-1.68,0-3.05-1.53-3.05-4.83c0-3.42,1.53-4.85,3.15-4.85
		C135.52,228.55,136.86,230.12,136.86,233.38z M132.2,233.39c0,1.55,0.28,3.65,1.62,3.65c1.28,0,1.54-2.19,1.54-3.65
		c0-1.44-0.26-3.64-1.58-3.64C132.46,229.74,132.2,231.95,132.2,233.39z"/>
	<path d="M140.15,226.28c0.01,0.59-0.35,0.97-0.91,0.97c-0.48,0-0.86-0.38-0.85-0.97c-0.01-0.59,0.38-0.97,0.88-0.97
		C139.8,225.31,140.15,225.69,140.15,226.28z M138.53,238.07v-9.36h1.48v9.36H138.53z"/>
	<path d="M142.1,224.67h1.48v13.4h-1.48V224.67z"/>
	<path d="M146.85,233.52c0.01,2.88,1.14,3.48,2.21,3.48c0.65,0,1.18-0.15,1.55-0.35l0.25,1.09c-0.52,0.29-1.32,0.45-2.07,0.45
		c-2.24,0-3.41-1.84-3.41-4.7c0-3.04,1.29-4.93,3.16-4.93c1.92,0,2.68,2.02,2.68,4.13c0,0.37-0.01,0.62-0.03,0.84H146.85z
		 M149.79,232.42c0.03-1.88-0.68-2.71-1.39-2.71c-0.99,0-1.47,1.42-1.54,2.71H149.79z"/>
	<path d="M154.65,226.21v2.49h1.8v1.13h-1.8v5.57c0,1.22,0.44,1.54,0.98,1.54c0.24,0,0.43-0.02,0.6-0.06l0.07,1.15
		c-0.26,0.1-0.61,0.15-1.11,0.15c-0.59,0-1.11-0.16-1.47-0.57c-0.38-0.43-0.56-1.05-0.56-2.35v-5.43h-1.14v-1.13h1.14v-2.06
		L154.65,226.21z"/>
	<path d="M160.79,231.63c0-1.44-0.05-2.26-0.08-2.92h1.33l0.07,1.19h0.04c0.51-1,1.25-1.34,1.98-1.34c1.63,0,2.71,1.73,2.71,4.81
		c0,3.48-1.44,4.86-2.9,4.86c-0.88,0-1.38-0.55-1.64-1.08h-0.04v4.65h-1.48V231.63z M162.27,234.63c0,0.28,0.02,0.54,0.07,0.77
		c0.29,1.33,0.96,1.57,1.37,1.57c1.24,0,1.64-1.7,1.64-3.58c0-1.95-0.47-3.57-1.65-3.57c-0.68,0-1.28,0.85-1.37,1.7
		c-0.04,0.23-0.05,0.47-0.05,0.71V234.63z"/>
	<path d="M172.24,238.07l-0.1-0.99h-0.05c-0.41,0.72-1.07,1.15-1.88,1.15c-1.25,0-2.22-1.06-2.22-2.68c0-2.34,1.88-3.37,4-3.39v-0.3
		c0-1.27-0.32-2.13-1.5-2.13c-0.58,0-1.11,0.19-1.55,0.49l-0.32-1.05c0.39-0.28,1.25-0.61,2.19-0.61c1.88,0,2.68,1.23,2.68,3.34
		v4.06c0,0.71,0.01,1.52,0.1,2.12H172.24z M172.02,233.22c-0.76,0.01-2.57,0.15-2.57,2.19c0,1.22,0.62,1.65,1.15,1.65
		c0.65,0,1.2-0.49,1.38-1.4c0.04-0.18,0.04-0.37,0.04-0.54V233.22z"/>
	<path d="M175.57,231.63c0-1.44-0.05-2.26-0.08-2.92h1.33l0.07,1.19h0.04c0.51-1,1.25-1.34,1.98-1.34c1.63,0,2.71,1.73,2.71,4.81
		c0,3.48-1.44,4.86-2.9,4.86c-0.88,0-1.38-0.55-1.64-1.08h-0.04v4.65h-1.48V231.63z M177.05,234.63c0,0.28,0.02,0.54,0.07,0.77
		c0.29,1.33,0.96,1.57,1.37,1.57c1.24,0,1.64-1.7,1.64-3.58c0-1.95-0.47-3.57-1.65-3.57c-0.68,0-1.28,0.85-1.37,1.7
		c-0.04,0.23-0.05,0.47-0.05,0.71V234.63z"/>
	<path d="M184.37,233.52c0.01,2.88,1.14,3.48,2.21,3.48c0.65,0,1.18-0.15,1.55-0.35l0.25,1.09c-0.52,0.29-1.32,0.45-2.07,0.45
		c-2.24,0-3.41-1.84-3.41-4.7c0-3.04,1.29-4.93,3.16-4.93c1.92,0,2.68,2.02,2.68,4.13c0,0.37-0.01,0.62-0.03,0.84H184.37z
		 M187.31,232.42c0.03-1.88-0.68-2.71-1.39-2.71c-0.99,0-1.47,1.42-1.54,2.71H187.31z"/>
	<path d="M190.33,231.13c0-0.79-0.05-1.72-0.08-2.42h1.33l0.07,1.46h0.05c0.3-0.89,1.1-1.62,1.96-1.62c0.13,0,0.22,0.01,0.31,0.02
		v1.52c-0.08-0.01-0.18-0.01-0.31-0.01c-0.94,0-1.65,0.87-1.81,1.95c-0.04,0.25-0.05,0.53-0.05,0.85v5.19h-1.48V231.13z"/>
	<path d="M202.76,237.84c-0.33,0.19-0.89,0.35-1.55,0.35c-2.04,0-3.43-1.65-3.43-4.75c0-2.69,1.36-4.87,3.71-4.87
		c0.5,0,1.05,0.14,1.32,0.3l-0.29,1.21c-0.2-0.1-0.57-0.26-1.07-0.26c-1.5,0-2.16,1.79-2.16,3.62c0,2.19,0.84,3.5,2.2,3.5
		c0.4,0,0.75-0.09,1.08-0.26L202.76,237.84z"/>
	<path d="M207.81,238.07l-0.1-0.99h-0.05c-0.41,0.72-1.07,1.15-1.88,1.15c-1.25,0-2.22-1.06-2.22-2.68c0-2.34,1.88-3.37,4-3.39v-0.3
		c0-1.27-0.32-2.13-1.5-2.13c-0.58,0-1.11,0.19-1.55,0.49l-0.32-1.05c0.39-0.28,1.25-0.61,2.19-0.61c1.88,0,2.68,1.23,2.68,3.34
		v4.06c0,0.71,0.01,1.52,0.1,2.12H207.81z M207.58,233.22c-0.76,0.01-2.57,0.15-2.57,2.19c0,1.22,0.62,1.65,1.15,1.65
		c0.65,0,1.2-0.49,1.38-1.4c0.04-0.18,0.04-0.37,0.04-0.54V233.22z"/>
	<path d="M211.15,231.13c0-1.1-0.05-1.67-0.08-2.42h1.3l0.07,1.12h0.04c0.4-0.75,1.16-1.28,2.15-1.28c1.3,0,2.27,0.96,2.27,3.22
		v6.29h-1.49v-6.04c0-1.12-0.21-2.23-1.3-2.23c-0.63,0-1.22,0.52-1.41,1.52c-0.05,0.23-0.07,0.52-0.07,0.84v5.9h-1.48V231.13z"/>
	<path d="M222.04,224.67h1.49v5.04h0.04c0.21-0.33,0.49-0.62,0.79-0.82c0.34-0.21,0.72-0.33,1.24-0.33c1.19,0,2.19,0.94,2.19,3.3
		v6.21h-1.48v-6.04c0-1.15-0.26-2.22-1.27-2.22c-0.69,0-1.22,0.5-1.45,1.49c-0.04,0.2-0.06,0.48-0.06,0.7v6.07h-1.49V224.67z"/>
	<path d="M230.93,233.52c0.01,2.88,1.14,3.48,2.21,3.48c0.65,0,1.18-0.15,1.55-0.35l0.25,1.09c-0.52,0.29-1.32,0.45-2.07,0.45
		c-2.24,0-3.41-1.84-3.41-4.7c0-3.04,1.29-4.93,3.16-4.93c1.92,0,2.68,2.02,2.68,4.13c0,0.37-0.01,0.62-0.03,0.84H230.93z
		 M233.88,232.42c0.03-1.88-0.68-2.71-1.39-2.71c-0.99,0-1.47,1.42-1.54,2.71H233.88z"/>
	<path d="M236.91,224.67h1.49v13.4h-1.49V224.67z"/>
	<path d="M240.6,231.63c0-1.44-0.05-2.26-0.08-2.92h1.33l0.07,1.19h0.04c0.51-1,1.25-1.34,1.98-1.34c1.63,0,2.71,1.73,2.71,4.81
		c0,3.48-1.44,4.86-2.9,4.86c-0.88,0-1.38-0.55-1.64-1.08h-0.04v4.65h-1.48V231.63z M242.08,234.63c0,0.28,0.02,0.54,0.07,0.77
		c0.29,1.33,0.96,1.57,1.37,1.57c1.24,0,1.63-1.7,1.63-3.58c0-1.95-0.47-3.57-1.65-3.57c-0.68,0-1.28,0.85-1.37,1.7
		c-0.04,0.23-0.05,0.47-0.05,0.71V234.63z"/>
	<path d="M257,235.52c0,1.03,0.05,1.86,0.08,2.55h-1.3l-0.1-0.98h-0.04c-0.29,0.46-1,1.13-2.01,1.13c-1.63,0-2.28-1.27-2.28-3.6
		v-5.92h1.48v5.7c0,1.47,0.24,2.56,1.26,2.56c0.88,0,1.26-0.82,1.34-1.25c0.06-0.25,0.08-0.53,0.08-0.83v-6.18H257V235.52z"/>
	<path d="M258.83,236.52c0.33,0.22,0.91,0.49,1.52,0.49c0.85,0,1.39-0.52,1.39-1.36c0-0.7-0.26-1.2-1.2-1.83
		c-1.22-0.79-1.9-1.6-1.9-2.67c0-1.52,1.14-2.59,2.59-2.59c0.73,0,1.28,0.24,1.67,0.48l-0.4,1.13c-0.35-0.25-0.75-0.42-1.25-0.42
		c-0.8,0-1.21,0.59-1.21,1.19c0,0.63,0.24,0.98,1.17,1.62c1.08,0.7,1.94,1.55,1.94,2.86c0,1.88-1.28,2.78-2.82,2.78
		c-0.68,0-1.45-0.21-1.85-0.54L258.83,236.52z"/>
</g>
</svg>
