<?xml version="1.0" encoding="utf-8"?>
<!-- Generator: Adobe Illustrator 24.0.3, SVG Export Plug-In . SVG Version: 6.00 Build 0)  -->
<svg version="1.1" id="Layer_1" xmlns="http://www.w3.org/2000/svg" xmlns:xlink="http://www.w3.org/1999/xlink" x="0px" y="0px"
	 viewBox="0 0 193.9 70.03" style="enable-background:new 0 0 193.9 70.03;" xml:space="preserve">
<style type="text/css">
	.st0{fill:none;}
</style>
<g>
	<path d="M177.17,67.28H16.61V4.31h160.56V67.28z M24.61,59.28h144.56V12.31H24.61V59.28z"/>
</g>
<g>
	<rect class="st0" width="193.9" height="70.03"/>
</g>
<g>
	<g>
		<path d="M100.01,51.37v-0.28h-2.13l-0.85,0.14c-1.5-0.38-2.36-0.57-2.57-0.57l-0.71,0.28c-0.09,0-0.13-0.05-0.13-0.15
			c-1.29,0.19-2.09,0.29-2.42,0.29l-0.71-0.14c-0.19,0.1-0.33,0.14-0.42,0.14c-1.61-0.93-2.42-1.97-2.42-3.13
			c0-2.05,1.23-4.42,3.7-7.11c0.3,0,0.97-0.62,1.99-1.85c1.11-0.94,1.92-1.42,2.42-1.42c-0.1,0.47-0.19,0.7-0.29,0.7l0.15,0.29
			l-0.28,0.71h0.28v0.13l-1.71,1.85l0.15,0.71c-0.28,0-0.66,0.38-1.14,1.14c0.76,1.8,1.52,2.7,2.28,2.7l0.71-0.14h0.7
			c0.1,0,0.15,0.05,0.15,0.14c0.68,0,1.48-0.43,2.42-1.28c0.48-0.07,0.71-0.21,0.71-0.42v-2.55c0-0.17,0.14-0.6,0.42-1.28
			c-0.1-0.33-0.14-0.53-0.14-0.57c0.28-0.48,0.42-0.96,0.42-1.43c-0.16,0-0.3-0.23-0.42-0.7c0.1-0.65,0.14-1.18,0.14-1.57v-0.13
			c0-0.22-0.9-0.7-2.7-1.43h-0.29c-0.09,0-0.47,0.1-1.14,0.29h-0.85c-0.64-0.57-1.07-0.86-1.28-0.86l-0.29,0.15l-0.28-0.15
			c-0.19,0.1-0.33,0.15-0.42,0.15v-0.15c-0.35,0.19-0.73,0.29-1.14,0.29c-0.19,0-0.29-0.1-0.29-0.29v-0.42c0-0.2,0.71-1.2,2.13-2.99
			c0.57-1.51,1.81-2.93,3.7-4.26l0.28-1v-0.42l-0.85,0.14c-0.19-0.1-0.33-0.14-0.42-0.14c-0.19,0.1-0.33,0.14-0.44,0.14l-0.28-0.14
			c-0.68,0.19-1.2,0.29-1.56,0.29c-1.05-0.1-1.57-0.24-1.57-0.44l-0.28,0.15h-1.28l-0.85-0.15c-0.29,0.02-0.58,0.39-0.86,1.14
			c-0.66,0.16-0.99,0.39-0.99,0.71h-0.42v-0.14c0-0.28,0.04-0.42,0.13-0.42c-0.19-0.79-0.28-1.64-0.28-2.55h0.15
			c-0.19-0.51-0.29-1.18-0.29-2c0.1-1.29,0.15-2.1,0.15-2.42h0.99l0.86,0.15c0.08,0,0.46-0.14,1.14-0.42
			c0.6,0.19,0.98,0.28,1.14,0.28c0.65-0.19,1.22-0.28,1.71-0.28c0,0.12,0.33,0.4,0.99,0.85h0.15c0-0.38,0.42-0.57,1.27-0.57
			l0.71,0.15l1.28-0.15c0.68,0.1,1.06,0.15,1.14,0.15l1.28-0.28l0.28,0.13c0.48-0.19,0.81-0.28,0.99-0.28
			c0.5,0.1,0.78,0.14,0.86,0.14l0.71-0.14c0.47,0.19,0.7,0.33,0.7,0.42l0.71-0.15h0.42c0.19,0.03,0.29,0.13,0.29,0.29l-0.29,0.57
			c0.29,0.38,0.48,1.04,0.57,1.99c0,0.1-0.04,0.14-0.13,0.14l0.13,0.71v0.15l-0.13,0.28c0.19,0.03,0.28,0.13,0.28,0.29
			c0,0.19-0.52,0.66-1.56,1.42c-1.9,2.42-2.84,3.8-2.84,4.13c0.25,0,0.58,0.33,0.99,0.99c2.37,0.62,3.56,1.52,3.56,2.7l-0.14,0.29
			c0.28,0.8,0.42,1.37,0.42,1.71v0.28c0,0.69-0.14,2.54-0.42,5.55c0.03,0.19,0.13,0.28,0.29,0.28c-0.32,1.61-0.51,2.42-0.57,2.42
			l0.13,0.28l-0.13,1l0.13,0.85c-0.18,0.1-0.32,0.14-0.42,0.14l0.15,0.28v0.44c0,0.21-0.05,0.4-0.15,0.57l0.15,0.28
			c0,0.86-0.43,1.71-1.28,2.56c0,0.76-0.71,1.33-2.13,1.71c-0.52-0.1-0.9-0.14-1.14-0.14c0,0.19-0.1,0.28-0.29,0.28H100.01z"/>
	</g>
</g>
</svg>
