<?xml version="1.0" encoding="utf-8"?>
<!-- Generator: Adobe Illustrator 24.0.3, SVG Export Plug-In . SVG Version: 6.00 Build 0)  -->
<svg version="1.1" id="Layer_1" xmlns="http://www.w3.org/2000/svg" xmlns:xlink="http://www.w3.org/1999/xlink" x="0px" y="0px"
	 viewBox="0 0 193.9 70.03" style="enable-background:new 0 0 193.9 70.03;" xml:space="preserve">
<style type="text/css">
	.st0{fill:none;}
</style>
<g>
	<path d="M177.17,67.28H16.61V4.31h160.56V67.28z M24.61,59.28h144.56V12.31H24.61V59.28z"/>
</g>
<g>
	<rect class="st0" width="193.9" height="70.03"/>
</g>
<g>
	<g>
		<path d="M88.92,50.87c0-0.58,0.71-2.14,2.13-4.68c0.15,0,0.39-0.57,0.71-1.71c0.5,0,0.88-0.62,1.14-1.85
			c2.83-2.79,4.25-4.4,4.26-4.84c0.44,0,0.77-0.61,0.99-1.84c0.4-1.68,0.74-2.73,1-3.13l-0.15-0.28v-0.29c0-0.8,0.09-1.42,0.28-1.85
			c-0.28-1.12-0.42-2.07-0.42-2.84l0.15-0.99c-0.88-1.42-1.64-2.13-2.28-2.13c-0.62,0-1.04,0.24-1.28,0.71l-0.99-0.15h-0.42
			c-0.85,0.38-1.28,1.56-1.28,3.56c0,0.39,0.38,1.1,1.14,2.13v0.28l-0.15,0.29c0.19,0.03,0.29,0.12,0.29,0.28
			c-0.1,0.17-0.15,0.36-0.15,0.57c-1.28-0.16-2.51-0.68-3.7-1.56c-0.94-1.37-1.42-2.41-1.42-3.12c0.19-1.01,0.28-1.68,0.28-2
			l-0.28-2.28c1.2-2.39,2.81-3.96,4.83-4.7c0.48,0.29,0.85,0.44,1.14,0.44c2.54-0.29,4.06-0.44,4.55-0.44
			c0,0.15,0.43,0.39,1.28,0.71c0,0.73,0.57,1.2,1.71,1.43c1.07,0.44,2.02,2.05,2.84,4.83c-0.19,1.15-0.33,1.82-0.42,2
			c0.1,0.16,0.15,0.35,0.15,0.57c0,0.21-0.05,0.4-0.15,0.57c0,0.17,0.09,0.55,0.28,1.14l-0.13,0.28c0.19,1.19,0.28,2.19,0.28,2.99
			c-0.19,1.04-0.52,1.56-0.99,1.56h-0.29l0.43,1.28c-0.19,0-0.48,0.85-0.86,2.55c-0.89,1.27-1.55,2.03-1.99,2.28
			c-0.62,1.35-1.48,2.26-2.57,2.71c-0.01,0.22-0.44,0.7-1.28,1.42c-0.28,0.35-0.42,0.68-0.42,0.99v0.14h1.71
			c0.26-0.21,0.78-0.4,1.56-0.57h1.43c0.77-0.07,1.43-0.49,1.99-1.28h0.43v1l0.57,1.56v0.42c0,0.28-0.05,0.42-0.15,0.42l0.15,0.71
			v2.85h-1c-0.21,0-0.4-0.05-0.57-0.15c-0.83,0.12-1.44,0.26-1.84,0.44c-0.95-0.1-1.67-0.14-2.14-0.14c-0.5,0.1-0.78,0.14-0.85,0.14
			c-0.16-0.1-0.35-0.14-0.57-0.14l-0.71,0.14c0-0.38-0.38-0.62-1.14-0.71c0-0.1-0.05-0.15-0.15-0.15c-0.33,0.28-0.9,0.42-1.71,0.42
			h-0.42c-1.11,0-1.87-0.09-2.28-0.28c0,0.17-0.85,0.5-2.55,0.99V50.87z"/>
	</g>
</g>
</svg>
