<?xml version="1.0" encoding="utf-8"?>
<!-- Generator: Adobe Illustrator 24.0.3, SVG Export Plug-In . SVG Version: 6.00 Build 0)  -->
<svg version="1.1" id="Layer_1" xmlns="http://www.w3.org/2000/svg" xmlns:xlink="http://www.w3.org/1999/xlink" x="0px" y="0px"
	 viewBox="0 0 193.9 70.03" style="enable-background:new 0 0 193.9 70.03;" xml:space="preserve">
<style type="text/css">
	.st0{fill:none;}
</style>
<g>
	<path d="M177.17,67.28H16.61V4.31h160.56V67.28z M24.61,59.28h144.56V12.31H24.61V59.28z"/>
</g>
<g>
	<rect class="st0" width="193.9" height="70.03"/>
</g>
<g>
	<g>
		<path d="M96.31,51.44v-0.29h-0.15c-0.23,0.19-0.37,0.29-0.42,0.29h-0.42c-0.41,0-0.79-0.1-1.14-0.29c0-0.31,0.33-1.26,0.99-2.84
			v-0.13l-0.15-1c0.07-0.76,0.16-1.14,0.29-1.14l-0.15-0.28v-2.99c0-2.39,0.14-5.29,0.42-8.68c0-0.07-0.04-0.35-0.13-0.85l0.13-0.99
			c-0.09-1-0.13-1.8-0.13-2.42h0.13c-0.19-0.39-0.28-0.67-0.28-0.86h-0.15c-0.54,0.64-1.16,1.07-1.85,1.28
			c-0.42,0.57-0.8,0.86-1.14,0.86c-0.38-0.83-0.57-1.45-0.57-1.85v-0.71c0.38-0.44,0.85-2,1.43-4.7c0.56-0.8,1.13-2.36,1.71-4.69
			c0.62-0.29,1.19-0.44,1.71-0.44l1.28,0.15c0.18-0.1,0.32-0.15,0.42-0.15c0,0.29,0.19,0.44,0.57,0.44c1.2,0,2.1-0.19,2.7-0.57h0.14
			v0.57c0,0.09-0.05,0.13-0.14,0.13c0,0.1,0.05,0.15,0.14,0.15c0,0.1-0.05,0.25-0.14,0.42l0.42,2.57c0,0.1-0.04,0.15-0.13,0.15
			c0,0.09,0.04,0.13,0.13,0.13l-0.13,0.71c0,0.59,0.04,1.3,0.13,2.13c-0.09,1.14-0.18,1.71-0.28,1.71c0,0.1,0.05,0.15,0.15,0.15
			c-0.19,0.79-0.29,1.55-0.29,2.28c0.24,0,0.43,0.52,0.57,1.56L101,33.66c0.08,0,0.36,0.33,0.85,0.99c0,0.42-0.09,0.8-0.28,1.14
			c0.1,0.51,0.15,0.94,0.15,1.28c0,0.1-0.05,0.15-0.15,0.15c0,0.1,0.05,0.15,0.15,0.15l-0.15,0.7v0.57c0,1.11,0.05,2.86,0.15,5.26
			c-0.57,0.57-0.95,0.86-1.14,0.86v0.13l0.7,0.86v1.42c0.26,0.36,0.59,1.49,1,3.41v0.43l-0.14,0.28c-0.2,0-0.96-0.19-2.28-0.57
			c-1.14,0.22-1.9,0.46-2.28,0.71H96.31z"/>
	</g>
</g>
</svg>
