<?xml version="1.0" encoding="utf-8"?>
<!-- Generator: Adobe Illustrator 24.0.3, SVG Export Plug-In . SVG Version: 6.00 Build 0)  -->
<svg version="1.1" id="Layer_1" xmlns="http://www.w3.org/2000/svg" xmlns:xlink="http://www.w3.org/1999/xlink" x="0px" y="0px"
	 viewBox="0 0 193.9 70.03" style="enable-background:new 0 0 193.9 70.03;" xml:space="preserve">
<style type="text/css">
	.st0{fill:none;}
</style>
<g>
	<rect class="st0" width="193.9" height="70.03"/>
</g>
<g>
	<g>
		<path d="M94.55,52.51c-0.22,0-0.5-0.43-0.86-1.28c-0.86,0.48-1.71,0.85-2.55,1.14c-0.95,0-2.09-1.04-3.41-3.12
			c-0.12-1.02-0.22-1.64-0.29-1.85l0.15-0.86v-2.28c0-0.09,0.05-0.13,0.15-0.13c-0.07-0.13-0.16-0.79-0.29-2h0.15l-0.15-0.28v-1.71
			c0-0.19,0.1-0.67,0.29-1.43c-0.28-0.54-0.42-0.91-0.42-1.14c0.07-1.04,0.17-1.56,0.28-1.56l-0.15-0.29l0.44-0.99
			c-0.29-1-0.44-1.76-0.44-2.28v-1.14c0-0.1,0.05-0.14,0.15-0.14l-0.15-0.28c0-0.1,0.05-0.14,0.15-0.14l-0.28-0.99
			c0.19-0.48,0.28-0.81,0.28-0.99c-0.06-0.76-0.15-1.14-0.28-1.14c0-1.09,0.33-2.38,0.99-3.85c0.5-2.46,1.4-3.69,2.7-3.69h0.86
			c0.94-0.42,1.46-0.7,1.56-0.86c2.86,0.38,4.37,0.62,4.55,0.71c0.51-0.1,0.94-0.14,1.28-0.14l1.71,0.14
			c0.18-0.1,0.32-0.14,0.42-0.14c0,0.13,0.24,0.37,0.71,0.71c0.28,0,1.13-0.14,2.55-0.42c0.28,0.1,0.42,0.19,0.42,0.28
			c0,1.19,0.1,2.38,0.29,3.56c-0.22,0.66-0.36,0.99-0.42,0.99l0.13,0.29c-0.24,0.76-0.62,1.14-1.14,1.14h-0.28l-1.85-0.14
			c-0.65,0.16-1.36,0.49-2.13,0.99c-0.93-0.38-1.88-0.61-2.84-0.7l-1.43-0.86h-0.13l-1.28,0.86c0.1,0.52,0.15,0.9,0.15,1.14
			c0,0.51-0.19,1.36-0.57,2.55l0.13,0.99c-0.09,0.19-0.13,0.33-0.13,0.43c0.19,0.03,0.28,0.12,0.28,0.28
			c2.09-0.07,3.13-0.22,3.13-0.42c0.36,0,1.12,0.24,2.28,0.71c2.08,0.07,3.12,0.35,3.12,0.85c0.12,0,0.31,0.52,0.57,1.56
			c0.45,0.15,1.07,0.77,1.85,1.85v0.57c0,0.1-0.05,0.14-0.14,0.14l0.14,0.28v1.71c0,0.95-0.05,2.38-0.14,4.27
			c-0.05,0-0.43,0.47-1.14,1.42c0,0.43,0.33,0.81,0.99,1.14c-0.24,1.7-0.57,2.94-0.99,3.7c-1.27,1.21-2.06,1.91-2.37,2.11
			s-0.56,0.31-0.75,0.31c-0.5-0.1-0.79-0.14-0.86-0.14c-0.14,0-0.9,0.19-2.27,0.57H94.55z M98.11,44.12
			c0.09-0.36,0.13-0.79,0.13-1.28v-0.42c0-0.42-0.09-0.8-0.28-1.14l0.14-0.71c-0.16-0.29-0.31-1.1-0.44-2.42
			c-0.31-0.48-0.68-0.71-1.14-0.71h-1.56c-0.48,0.21-0.85,0.59-1.14,1.14c-0.28,0-0.42,0.1-0.42,0.29c0.19,0.31,0.28,0.59,0.28,0.85
			v0.43c0,0.09-0.04,0.13-0.13,0.13c0,0.1,0.04,0.15,0.13,0.15c-0.09,0.62-0.23,1.14-0.42,1.56c0,1.99,0.52,2.99,1.56,2.99
			c0.68,0.28,1.11,0.42,1.28,0.42C97.44,44.99,98.11,44.57,98.11,44.12z"/>
	</g>
</g>
<g>
	<path d="M140.83,70.03H53.59c-20.21,0-36.66-16.45-36.66-36.66V3.87h160.56v29.5C177.49,53.59,161.05,70.03,140.83,70.03z
		 M24.93,11.87v21.5c0,15.8,12.86,28.66,28.66,28.66h87.24c15.8,0,28.66-12.86,28.66-28.66v-21.5H24.93z"/>
</g>
</svg>
