<?xml version="1.0" encoding="utf-8"?>
<!-- Generator: Adobe Illustrator 24.0.3, SVG Export Plug-In . SVG Version: 6.00 Build 0)  -->
<svg version="1.1" id="Layer_1" xmlns="http://www.w3.org/2000/svg" xmlns:xlink="http://www.w3.org/1999/xlink" x="0px" y="0px"
	 viewBox="0 0 193.9 188.06" style="enable-background:new 0 0 193.9 188.06;" xml:space="preserve">
<style type="text/css">
	.st0{fill:none;}
</style>
<g>
	<rect y="118.02" class="st0" width="193.9" height="70.03"/>
</g>
<g id="qIv4hC.tif">
	<g>
		<path d="M192.98,169.45c-1.19,3.88-3.02,7.36-6.29,9.92c-2.94,2.3-6.21,3.61-10.01,3.59c-7-0.05-14-0.21-20.99,0.05
			c-5.8,0.21-10.7-1.37-14.69-5.79c-2.66,2.77-5.65,5.28-9.43,5.43c-8.35,0.32-16.73,0.34-25.08,0.03c-3.77-0.14-6.8-2.59-9.5-5.44
			c-2.62,2.69-5.53,5.21-9.24,5.35c-8.47,0.32-16.97,0.35-25.44,0.04c-3.7-0.13-6.67-2.6-9.31-5.37c-2.63,2.69-5.56,4.75-9.25,5.4
			c-1.4,0.25-2.85,0.29-4.28,0.29c-7.25,0.03-14.5,0-21.75,0.02c-6.83,0.01-12.98-3.96-15.58-10.31
			c-2.66-6.49-0.86-12.07,3.81-16.96c0.21-0.22,0.41-0.45,0.7-0.76c-2.52-2.39-4.45-5.11-5.29-8.49
			c-2.31-9.33,5.4-19.23,15.38-19.47c8.12-0.2,16.25-0.21,24.37,0.01c7.09,0.2,11.97,4.11,14.69,10.45
			c2.66,6.2,0.85,11.71-3.58,16.51c-0.25,0.28-0.52,0.54-0.77,0.82c-0.04,0.04-0.06,0.11-0.15,0.26c0.22,0.23,0.47,0.48,0.71,0.75
			c0.25,0.28,0.49,0.57,0.73,0.84c1.55-1.19,2.95-2.42,4.5-3.42c2.47-1.6,5.23-2.28,8.18-2.27c5.62,0.02,11.25,0.17,16.87-0.03
			c5.7-0.21,10.6,1.32,14.41,5.59c0.24-0.03,0.41-0.01,0.47-0.07c3.98-4.15,8.83-5.76,14.55-5.52c5.55,0.23,11.12,0.08,16.68,0.04
			c4.35-0.03,8.02,1.55,11.2,4.43c0.46,0.41,0.9,0.85,1.37,1.29c0.6-0.56,1.14-1.07,1.62-1.52c-1.15-1.48-2.36-2.77-3.28-4.24
			c-6.28-10.15,1.2-23.56,13.45-23.9c8.18-0.23,16.37-0.15,24.56-0.01c6.94,0.12,13.28,5.43,15.22,12.39
			c0.12,0.41,0.28,0.81,0.42,1.22c0,1.63,0,3.25,0,4.88c-1.12,3.62-2.77,6.94-5.77,9.51c3.08,2.71,4.73,5.99,5.77,9.62
			C192.98,166.2,192.98,167.82,192.98,169.45z M164.66,174.9c0,0.01,0,0.02,0,0.02c2.19,0,4.37,0.01,6.56,0
			c2.18-0.01,4.38,0.07,6.55-0.09c4.62-0.34,7.21-3.26,7.16-7.9c-0.05-4.75-2.75-7.85-7.38-7.93c-8.36-0.14-16.73-0.11-25.1-0.01
			c-3.76,0.04-6.34,2.17-7.14,5.47c-1.47,6.06,1.69,10.28,7.92,10.42C157.04,174.97,160.85,174.9,164.66,174.9z M28.94,174.9
			c3.87,0,7.74,0.03,11.61-0.02c1.11-0.01,2.26-0.11,3.32-0.42c3.56-1.05,5.53-4.47,5.04-8.55c-0.51-4.25-3.11-6.84-7.45-6.91
			c-8.3-0.12-16.61-0.1-24.91-0.02c-3.76,0.04-6.56,2.1-7.21,5.38c-1.17,5.86,1.14,10.59,7.98,10.55
			C21.2,174.88,25.07,174.9,28.94,174.9z M28.84,150.78c0,0,0-0.01,0-0.01c2,0,3.99,0,5.99,0c2.06,0,4.12,0.04,6.18-0.01
			c0.99-0.02,2.01-0.06,2.95-0.34c3.47-1.04,5.42-4.44,4.97-8.43c-0.48-4.26-3.01-6.91-7.37-6.99c-8.42-0.16-16.85-0.18-25.27,0.01
			c-4.89,0.11-7.36,3.38-7.16,8.76c0.16,4.41,2.98,6.98,7.73,7C20.85,150.79,24.85,150.78,28.84,150.78z M164.88,150.77
			c1.94,0,3.87,0,5.81,0c1.93,0,3.87,0.03,5.8-0.01c1.11-0.02,2.28,0.01,3.33-0.28c3.71-1.04,5.46-4.26,4.99-8.9
			c-0.39-3.85-2.96-6.46-7.12-6.55c-8.49-0.17-16.98-0.2-25.46-0.01c-4.66,0.1-7.43,3.54-7.25,8.25c0.18,4.79,3.03,7.5,7.92,7.51
			C156.89,150.79,160.89,150.78,164.88,150.77z M119.01,158.96c-3.43,0-6.87-0.06-10.3,0.02c-2.91,0.07-5.47,1.06-6.78,3.86
			c-1.39,2.99-1.35,6.07,0.41,8.95c1.07,1.74,2.77,2.88,4.78,2.91c7.8,0.11,15.6,0.2,23.4,0c3.73-0.1,6.1-2.96,6.26-6.67
			c0.22-5.12-1.5-8.2-5.64-8.67C127.15,158.9,119.01,159.06,119.01,158.96z M75.22,174.77c0-0.01,0-0.02,0-0.03
			c3.81,0,7.62,0.15,11.42-0.05c2.95-0.16,5.05-1.89,5.83-4.76c1.51-5.6-0.69-11.02-7.99-10.99c-6.31,0.03-12.61-0.01-18.92,0.02
			c-0.87,0-1.74,0.11-2.6,0.28c-4.29,0.86-6.06,3.62-5.81,8.99c0.17,3.57,2.67,6.29,6.46,6.51
			C67.47,174.94,71.35,174.77,75.22,174.77z"/>
		<path d="M92.9,54.92c0-0.97,0-1.7,0-2.43c-0.01-14.81-0.03-29.62-0.03-44.43c0-3.77,1.32-5.11,5-5.11c12.87,0,25.74,0,38.61,0
			c3.3,0,5.17,2.2,4.31,5.4c-2.1,7.88-4.31,15.74-6.53,23.59c-0.61,2.15-1.99,3.02-4.58,3.03c-8.5,0.02-16.99,0.01-25.49,0.01
			c-0.99,0-1.97,0-3.05,0c0,6.69,0,13.17,0,19.94c0.77,0,1.49,0,2.21,0c12.25,0,24.5,0.15,36.74-0.04
			c17.51-0.26,32.78,12.6,36.1,29.04c0.88,4.35,0.69,8.94,0.79,13.42c0.12,5.68,0.05,11.37,0.02,17.06
			c-0.02,2.37-1.03,3.85-2.79,4.38c-2.78,0.83-5.22-1.06-5.23-4.13c-0.03-7.87-0.01-15.75-0.01-23.62
			c0-13.88-8.74-24.68-22.33-27.48c-1.94-0.4-3.96-0.58-5.95-0.58c-29.24-0.04-58.48-0.05-87.73-0.02c-15.99,0.02-27.95,12.01-28,28
			c-0.02,7.81,0,15.62,0,23.43c0,2.73-1.49,4.51-3.84,4.59c-2.45,0.08-4.17-1.7-4.17-4.47c-0.01-8.43-0.4-16.9,0.16-25.3
			c1.03-15.36,9.36-25.77,23.3-31.86c4.11-1.79,8.49-2.43,12.97-2.43c12.31,0.01,24.62,0,36.93,0C91.1,54.92,91.9,54.92,92.9,54.92z
			 M101.21,11.09c0,5.32,0,10.53,0,15.8c8.72,0,17.32,0,26.09,0c1.43-5.22,2.86-10.45,4.33-15.8
			C121.29,11.09,111.26,11.09,101.21,11.09z"/>
		<path d="M97.17,94.87c16.99,0,33.99,0,50.98,0c2.96,0,4.79,1.55,4.84,4.04c0.04,2.46-1.84,4.1-4.76,4.1
			c-34.17,0-68.35,0.01-102.52,0c-2.88,0-4.8-1.68-4.75-4.13c0.05-2.47,1.91-4.03,4.86-4.03c17.12-0.01,34.24,0,51.35,0
			C97.17,94.86,97.17,94.87,97.17,94.87z"/>
	</g>
</g>
</svg>
