<?xml version="1.0" encoding="utf-8"?>
<!-- Generator: Adobe Illustrator 24.0.3, SVG Export Plug-In . SVG Version: 6.00 Build 0)  -->
<svg version="1.1" id="Layer_1" xmlns="http://www.w3.org/2000/svg" xmlns:xlink="http://www.w3.org/1999/xlink" x="0px" y="0px"
	 viewBox="0 0 193.9 70.03" style="enable-background:new 0 0 193.9 70.03;" xml:space="preserve">
<style type="text/css">
	.st0{fill:none;}
</style>
<g>
	<path d="M95.92,50.86h-0.57c-0.09,0-0.47,0.1-1.14,0.29c-0.74,0-2.06-0.05-3.98-0.14l-0.85,0.14c-1.32-0.41-2.03-0.87-2.14-1.39
		c-0.11-0.52-0.2-1.76-0.28-3.73c0.33-1.35,0.71-2.44,1.14-3.27c0.83-1.15,1.82-2.14,2.99-2.99h0.42l-0.15,0.99v0.71
		c0,0.19,0.1,0.66,0.29,1.42c-0.1,0.19-0.15,0.33-0.15,0.43c0,0.47,0.67,0.8,2,0.99c0,0.19,0.23,0.28,0.7,0.28
		c2.25-0.3,3.49-0.54,3.7-0.7c0.26-0.31,0.45-0.84,0.57-1.57l-0.29-1.14c0.07-0.16,0.17-0.72,0.29-1.71
		c-0.57-0.08-0.86-0.6-0.86-1.56c0.19-1.61,0.29-2.51,0.29-2.7c-0.28-0.48-0.56-0.71-0.86-0.71c-0.59,0.3-1.11,0.64-1.56,0.99h-0.15
		c-0.31,0-0.55-0.04-0.7-0.13l-0.71,0.13c-0.76-0.07-1.14-0.45-1.14-1.14h-0.42c-0.3,0.17-1.34,0.46-3.13,0.86l-0.99-0.15
		c-0.51,0.1-0.94,0.15-1.28,0.15v-0.57h0.29c0-0.12-0.05-0.59-0.15-1.43c0.1-0.33,0.15-0.52,0.15-0.57
		c-0.1-0.18-0.15-0.32-0.15-0.42c0.38-0.8,0.57-1.51,0.57-2.13c-0.19-0.31-0.29-0.6-0.29-0.86v-0.13c0.29-1.03,0.48-2.45,0.57-4.27
		c-0.19-0.94-0.47-1.7-0.85-2.28c0.28-1.65,0.42-2.69,0.42-3.12v-0.71c0-0.38,0.85-0.57,2.57-0.57c0.18,0.1,0.32,0.15,0.42,0.15
		l0.28-0.15c0.88,0.22,1.45,0.41,1.71,0.57c0.16,0,0.45-0.1,0.86-0.29c0.17,0,0.5,0.33,0.99,1h0.15c0-0.31,0.52-0.5,1.56-0.57
		c0.5,0.09,0.78,0.13,0.86,0.13c1.96-0.38,3-0.57,3.12-0.57c0.39,0.19,0.67,0.29,0.86,0.29c1-0.28,1.76-0.42,2.28-0.42h0.13
		l0.43,0.28l0.57-0.42h0.13v0.15l-0.57,1.56c0,0.49,0.15,2.01,0.44,4.55c-0.21,0-0.4,0.38-0.57,1.14h-0.14
		c-0.35,0-0.78-0.19-1.28-0.57h-0.14c-0.34,0.28-0.67,0.42-0.99,0.42c-0.21,0-0.41-0.05-0.57-0.14l-0.28,0.14
		c-0.17-0.1-0.36-0.14-0.57-0.14l-1,0.43c-0.25,0-1.15-0.38-2.7-1.14c-0.77,0.34-1.62,0.62-2.55,0.85c-0.1,0.16-0.15,0.35-0.15,0.57
		v1.71c0,0.1-0.05,0.15-0.15,0.15l0.15,0.28l-0.15,0.29c0.1,0.19,0.15,0.33,0.15,0.42h0.99c0.29,0,1,0.19,2.13,0.57l0.71-0.15
		c0.04,0,0.23,0.05,0.57,0.15l0.57-0.28c2.44,0.6,3.86,1.02,4.27,1.27l1.27,1.71c0.1,1.59,0.15,2.83,0.15,3.7v0.15l-0.57,2.13v0.71
		c0,0.9,0.14,1.66,0.42,2.28c-0.13,0.94-0.42,1.42-0.85,1.42c0.48,0.5,0.71,0.88,0.71,1.14c-0.1,1.23-0.14,2.23-0.14,2.99v0.42
		c-0.88,2.08-1.5,3.36-1.85,3.84c-1.61,0-3.22,0.29-4.83,0.86C96.37,51.15,96.03,50.86,95.92,50.86z"/>
</g>
<g>
	<path d="M177.17,67.28H16.61V4.31h160.56V67.28z M24.61,59.28h144.56V12.31H24.61V59.28z"/>
</g>
<g>
	<rect class="st0" width="193.9" height="70.03"/>
</g>
</svg>
