<?xml version="1.0" encoding="utf-8"?>
<!-- Generator: Adobe Illustrator 24.0.3, SVG Export Plug-In . SVG Version: 6.00 Build 0)  -->
<svg version="1.1" id="Layer_1" xmlns="http://www.w3.org/2000/svg" xmlns:xlink="http://www.w3.org/1999/xlink" x="0px" y="0px"
	 viewBox="0 0 193.9 70.03" style="enable-background:new 0 0 193.9 70.03;" xml:space="preserve">
<style type="text/css">
	.st0{fill:none;}
</style>
<g>
	<path d="M177.17,67.28H16.61V4.31h160.56V67.28z M24.61,59.28h144.56V12.31H24.61V59.28z"/>
</g>
<g>
	<rect class="st0" width="193.9" height="70.03"/>
</g>
<g>
	<g>
		<path d="M97.38,52.37c0-0.88,0.33-1.68,0.99-2.42v-0.42l-0.13-0.29c0.66-1.25,0.99-2.1,0.99-2.55c-0.16,0-0.4-0.48-0.71-1.43
			c0.1-0.73,0.24-1.34,0.42-1.84l-0.28-3.56l0.15-0.29c0-1.23-0.43-1.84-1.28-1.84l-0.99-0.71c-0.34,0-0.77,0.05-1.28,0.15
			l-0.71-0.44c0,0.19-0.09,0.29-0.28,0.29c-0.13,0-0.65-0.1-1.57-0.29h-0.28c-0.89,0-1.6,0.19-2.13,0.57
			c-1.71,0-2.57-0.76-2.57-2.28c-0.1,0-0.15-0.19-0.15-0.57c0.19-1.46,0.29-2.55,0.29-3.27c-0.1-0.68-0.15-1.06-0.15-1.14h0.15
			l-0.15-0.28c0-0.33,0.62-1.66,1.85-3.98c0-0.48,0.19-1,0.57-1.57c0.54-1.7,1.35-2.55,2.42-2.55c0.32-0.76,0.74-1.14,1.27-1.14
			l0.15,0.28l-0.71,4.55c0,0.07,0.19,0.6,0.57,1.57c0,0.18-0.09,0.51-0.28,0.99c0,0.04,0.05,0.23,0.15,0.57
			c-0.1,0.5-0.15,0.97-0.15,1.42c0.53,0.85,1,1.28,1.42,1.28v0.15c1.24-0.57,2.1-0.86,2.57-0.86h0.71c0-0.28,0.04-0.42,0.13-0.42
			l-0.28-1.42c0-0.28,0.14-1.22,0.42-2.84c0-0.14-0.05-0.81-0.15-2c0.29-0.66,0.44-1.13,0.44-1.42c-0.19-1.52-0.29-2.32-0.29-2.42
			h0.15l-0.15-0.29v-0.28c0.03-0.19,0.13-0.29,0.29-0.29h0.57l0.85,0.15c0.31-0.19,0.6-0.28,0.86-0.28h0.42l1.71,1.14h0.42
			c0.67-0.19,1.52-0.34,2.57-0.43v0.43c-0.57,0.92-0.86,1.96-0.86,3.12l-0.42,0.71c0,0.1,0.05,0.15,0.15,0.15
			c-0.19,0.55-0.34,2.16-0.44,4.83c0.1,0.89,0.15,1.75,0.15,2.57c-0.42,0.47-0.7,0.7-0.85,0.7c0.19,0.62,0.28,1.04,0.28,1.28v0.99
			c0,0.22-0.05,0.41-0.14,0.57c0.1,0.19,0.14,0.33,0.14,0.43c0,0.1-0.05,0.24-0.14,0.42c0.1,0.62,0.24,1.1,0.43,1.42
			c-0.19,0.48-0.29,0.82-0.29,1c0.19,1.9,0.29,3.17,0.29,3.84c0,0.74-0.19,1.4-0.57,1.99c0.13,0.13,0.27,0.6,0.42,1.43l-0.15,0.71
			v1.42c0,2.16,0.43,3.49,1.28,3.98l0.14,0.29c-0.15,0.38-0.29,0.57-0.43,0.57h-0.57c-0.52,0-1.18-0.05-1.99-0.15
			c-0.16,0.1-0.35,0.15-0.57,0.15c-0.33,0-0.57-0.38-0.71-1.14h-0.28c0,0.57-0.1,0.85-0.29,0.85c-0.1,0-0.24-0.05-0.42-0.15
			c-0.38,0.1-0.71,0.15-0.99,0.15l-0.29-0.15l-0.71,0.44c-0.09,0-0.13-0.05-0.13-0.15c-0.31,0.19-0.55,0.28-0.71,0.28L97.38,52.37z"
			/>
	</g>
</g>
</svg>
